<svg version="1.1" viewBox="0.0 0.0 600.0 395.0" fill="none" stroke="none" stroke-linecap="square" stroke-miterlimit="10" width="600" height="395" xmlns:xlink="http://www.w3.org/1999/xlink" xmlns="http://www.w3.org/2000/svg"><path fill="#f8fafd" d="M0 0L600.0 0L600.0 395.0L0 395.0L0 0Z" fill-rule="nonzero"/><path stroke="#2d2e2e" stroke-width="1.0" stroke-linecap="butt" d="M79.5 315.5L580.5 315.5" fill-rule="nonzero"/><path stroke="#b7b7b7" stroke-width="1.0" stroke-linecap="butt" d="M79.5 252.5L580.5 252.5" fill-rule="nonzero"/><path stroke="#b7b7b7" stroke-width="1.0" stroke-linecap="butt" d="M79.5 190.5L580.5 190.5" fill-rule="nonzero"/><path stroke="#b7b7b7" stroke-width="1.0" stroke-linecap="butt" d="M79.5 127.5L580.5 127.5" fill-rule="nonzero"/><path stroke="#b7b7b7" stroke-width="1.0" stroke-linecap="butt" d="M79.5 64.5L580.5 64.5" fill-rule="nonzero"/><path stroke="#e1e1e1" stroke-width="1.0" stroke-linecap="butt" d="M79.5 284.5L580.5 284.5" fill-rule="nonzero"/><path stroke="#e1e1e1" stroke-width="1.0" stroke-linecap="butt" d="M79.5 221.5L580.5 221.5" fill-rule="nonzero"/><path stroke="#e1e1e1" stroke-width="1.0" stroke-linecap="butt" d="M79.5 158.5L580.5 158.5" fill-rule="nonzero"/><path stroke="#e1e1e1" stroke-width="1.0" stroke-linecap="butt" d="M79.5 95.5L580.5 95.5" fill-rule="nonzero"/><clipPath id="id_0"><path d="M79.75 64.416664L580.25 64.416664L580.25 315.75482L79.75 315.75482L79.75 64.416664Z" clip-rule="nonzero"/></clipPath><path stroke="#7f0d82" stroke-width="2.0" stroke-linecap="butt" clip-path="url(#id_0)" d="M125.71429 113.044624L125.71429 144.05322" fill-rule="nonzero"/><path stroke="#7f0d82" stroke-width="2.0" stroke-linecap="butt" clip-path="url(#id_0)" d="M125.71429 170.98071L125.71429 117.60412" fill-rule="nonzero"/><path fill="#7f0d82" clip-path="url(#id_0)" d="M102.583336 116.60412L148.84525 116.60412L148.84525 145.05322L102.583336 145.05322L102.583336 116.60412Z" fill-rule="nonzero"/><path stroke="#7f0d82" stroke-width="2.0" stroke-linecap="butt" clip-path="url(#id_0)" d="M193.80952 101.74352L193.80952 135.7908" fill-rule="nonzero"/><path stroke="#7f0d82" stroke-width="2.0" stroke-linecap="butt" clip-path="url(#id_0)" d="M193.80952 165.4911L193.80952 111.0814" fill-rule="nonzero"/><path fill="#7f0d82" clip-path="url(#id_0)" d="M170.67857 110.0814L216.94048 110.0814L216.94048 136.79082L170.67857 136.79082L170.67857 110.0814Z" fill-rule="nonzero"/><path stroke="#7f0d82" stroke-width="2.0" stroke-linecap="butt" clip-path="url(#id_0)" d="M261.90475 117.99655L261.90475 268.96744" fill-rule="nonzero"/><path stroke="#7f0d82" stroke-width="2.0" stroke-linecap="butt" clip-path="url(#id_0)" d="M261.90475 284.91254L261.90475 202.98624" fill-rule="nonzero"/><path fill="#7f0d82" clip-path="url(#id_0)" d="M238.7738 201.98624L285.0357 201.98624L285.0357 269.96744L238.7738 269.96744L238.7738 201.98624Z" fill-rule="nonzero"/><path stroke="#7f0d82" stroke-width="2.0" stroke-linecap="butt" clip-path="url(#id_0)" d="M330.0 173.26349L330.0 236.63258" fill-rule="nonzero"/><path stroke="#7f0d82" stroke-width="2.0" stroke-linecap="butt" clip-path="url(#id_0)" d="M330.0 269.7529L330.0 202.28046" fill-rule="nonzero"/><path fill="#7f0d82" clip-path="url(#id_0)" d="M306.86905 201.28046L353.13095 201.28046L353.13095 237.63258L306.86905 237.63258L306.86905 201.28046Z" fill-rule="nonzero"/><path stroke="#7f0d82" stroke-width="2.0" stroke-linecap="butt" clip-path="url(#id_0)" d="M398.09525 151.34831L398.09525 176.85632" fill-rule="nonzero"/><path stroke="#7f0d82" stroke-width="2.0" stroke-linecap="butt" clip-path="url(#id_0)" d="M398.09525 235.48589L398.09525 160.10867" fill-rule="nonzero"/><path fill="#7f0d82" clip-path="url(#id_0)" d="M374.9643 159.10867L421.2262 159.10867L421.2262 177.85632L374.9643 177.85632L374.9643 159.10867Z" fill-rule="nonzero"/><path stroke="#7f0d82" stroke-width="2.0" stroke-linecap="butt" clip-path="url(#id_0)" d="M466.1905 114.354416L466.1905 141.19962" fill-rule="nonzero"/><path stroke="#7f0d82" stroke-width="2.0" stroke-linecap="butt" clip-path="url(#id_0)" d="M466.1905 177.4942L466.1905 119.82292" fill-rule="nonzero"/><path fill="#7f0d82" clip-path="url(#id_0)" d="M443.0595 118.82292L489.3214 118.82292L489.3214 142.19962L443.0595 142.19962L443.0595 118.82292Z" fill-rule="nonzero"/><path stroke="#7f0d82" stroke-width="2.0" stroke-linecap="butt" clip-path="url(#id_0)" d="M534.2857 89.68451L534.2857 126.27716" fill-rule="nonzero"/><path stroke="#7f0d82" stroke-width="2.0" stroke-linecap="butt" clip-path="url(#id_0)" d="M534.2857 145.29558L534.2857 107.976265" fill-rule="nonzero"/><path fill="#7f0d82" clip-path="url(#id_0)" d="M511.15475 106.976265L557.4167 106.976265L557.4167 127.27715L511.15475 127.27715L511.15475 106.976265Z" fill-rule="nonzero"/><path fill="#000000" d="M320.4375 363.71875L322.21875 367.60938L324.0 363.71875L325.90625 363.71875L323.10938 369.14062L323.10938 372.25L321.32812 372.25L321.32812 369.14062L318.51562 363.71875L320.4375 363.71875ZM329.07812 372.375Q328.34375 372.375 327.75 372.14062Q327.17188 371.89062 326.75 371.46875Q326.34375 371.04688 326.125 370.48438Q325.92188 369.92188 325.92188 369.29688L325.92188 369.0625Q325.92188 368.34375 326.125 367.75Q326.32812 367.14062 326.70312 366.70312Q327.09375 366.26562 327.64062 366.03125Q328.20312 365.79688 328.89062 365.79688Q329.5625 365.79688 330.07812 366.01562Q330.60938 366.23438 330.95312 366.65625Q331.3125 367.0625 331.48438 367.64062Q331.67188 368.20312 331.67188 368.89062L331.67188 369.59375L326.64062 369.59375L326.64062 368.46875L330.01562 368.46875L330.01562 368.34375Q330.01562 368.0 329.89062 367.71875Q329.76562 367.4375 329.51562 367.28125Q329.26562 367.10938 328.875 367.10938Q328.53125 367.10938 328.29688 367.26562Q328.0625 367.40625 327.90625 367.67188Q327.75 367.9375 327.67188 368.29688Q327.60938 368.64062 327.60938 369.0625L327.60938 369.29688Q327.60938 369.67188 327.71875 370.0Q327.82812 370.32812 328.03125 370.5625Q328.23438 370.79688 328.51562 370.92188Q328.8125 371.04688 329.1875 371.04688Q329.64062 371.04688 330.03125 370.875Q330.42188 370.6875 330.71875 370.32812L331.53125 371.21875Q331.34375 371.5 331.0 371.76562Q330.65625 372.03125 330.17188 372.20312Q329.6875 372.375 329.07812 372.375ZM335.57812 370.8125L335.57812 368.0Q335.57812 367.6875 335.46875 367.46875Q335.375 367.25 335.17188 367.125Q334.96875 367.0 334.64062 367.0Q334.35938 367.0 334.14062 367.10938Q333.9375 367.20312 333.82812 367.39062Q333.71875 367.5625 333.71875 367.79688L332.03125 367.79688Q332.03125 367.39062 332.21875 367.03125Q332.40625 366.67188 332.76562 366.39062Q333.125 366.10938 333.60938 365.95312Q334.10938 365.79688 334.73438 365.79688Q335.46875 365.79688 336.03125 366.04688Q336.60938 366.28125 336.9375 366.78125Q337.28125 367.26562 337.28125 368.0L337.28125 370.71875Q337.28125 371.23438 337.34375 371.57812Q337.40625 371.90625 337.53125 372.15625L337.53125 372.25L335.82812 372.25Q335.70312 371.98438 335.64062 371.60938Q335.57812 371.21875 335.57812 370.8125ZM335.79688 368.39062L335.8125 369.34375L334.875 369.34375Q334.53125 369.34375 334.28125 369.42188Q334.04688 369.5 333.89062 369.64062Q333.73438 369.76562 333.65625 369.95312Q333.57812 370.14062 333.57812 370.34375Q333.57812 370.5625 333.67188 370.73438Q333.78125 370.90625 333.96875 371.01562Q334.15625 371.10938 334.40625 371.10938Q334.78125 371.10938 335.0625 370.95312Q335.34375 370.79688 335.5 370.57812Q335.65625 370.35938 335.67188 370.15625L336.10938 370.875Q336.01562 371.10938 335.85938 371.375Q335.70312 371.625 335.45312 371.85938Q335.20312 372.07812 334.85938 372.23438Q334.51562 372.375 334.03125 372.375Q333.4375 372.375 332.9375 372.125Q332.45312 371.875 332.17188 371.45312Q331.89062 371.01562 331.89062 370.46875Q331.89062 369.96875 332.07812 369.59375Q332.26562 369.20312 332.625 368.9375Q333.0 368.65625 333.54688 368.53125Q334.09375 368.39062 334.82812 368.39062L335.79688 368.39062ZM339.84375 367.29688L339.84375 372.25L338.15625 372.25L338.15625 365.90625L339.75 365.90625L339.84375 367.29688ZM341.75 365.875L341.71875 367.4375Q341.60938 367.42188 341.42188 367.40625Q341.25 367.39062 341.10938 367.39062Q340.76562 367.39062 340.5 367.48438Q340.23438 367.5625 340.0625 367.75Q339.89062 367.92188 339.79688 368.17188Q339.71875 368.42188 339.70312 368.75L339.375 368.64062Q339.375 368.03125 339.48438 367.51562Q339.60938 366.98438 339.84375 366.60938Q340.09375 366.21875 340.4375 366.01562Q340.78125 365.79688 341.23438 365.79688Q341.375 365.79688 341.51562 365.8125Q341.65625 365.82812 341.75 365.875Z" fill-rule="nonzero"/><path fill="#000000" d="M23.21875 242.64584L27.109375 240.8646L23.21875 239.08334L23.21875 237.1771L28.640625 239.97397L31.75 239.97397L31.75 241.75522L28.640625 241.75522L23.21875 244.56772L23.21875 242.64584ZM31.875 234.00522Q31.875 234.7396 31.640625 235.33334Q31.390625 235.91147 30.96875 236.33334Q30.546875 236.7396 29.984375 236.95834Q29.421875 237.16147 28.796875 237.16147L28.5625 237.16147Q27.84375 237.16147 27.25 236.95834Q26.640625 236.75522 26.203125 236.38022Q25.765625 235.9896 25.53125 235.44272Q25.296875 234.88022 25.296875 234.19272Q25.296875 233.52084 25.515625 233.00522Q25.734375 232.47397 26.15625 232.13022Q26.5625 231.77084 27.140625 231.59897Q27.703125 231.41147 28.390625 231.41147L29.09375 231.41147L29.09375 236.44272L27.96875 236.44272L27.96875 233.06772L27.84375 233.06772Q27.5 233.06772 27.21875 233.19272Q26.9375 233.31772 26.78125 233.56772Q26.609375 233.81772 26.609375 234.20834Q26.609375 234.5521 26.765625 234.78647Q26.90625 235.02084 27.171875 235.1771Q27.4375 235.33334 27.796875 235.41147Q28.140625 235.47397 28.5625 235.47397L28.796875 235.47397Q29.171875 235.47397 29.5 235.3646Q29.828125 235.25522 30.0625 235.0521Q30.296875 234.84897 30.421875 234.56772Q30.546875 234.27084 30.546875 233.89584Q30.546875 233.44272 30.375 233.0521Q30.1875 232.66147 29.828125 232.3646L30.71875 231.5521Q31.0 231.7396 31.265625 232.08334Q31.53125 232.4271 31.703125 232.91147Q31.875 233.39584 31.875 234.00522ZM30.3125 227.50522L27.5 227.50522Q27.1875 227.50522 26.96875 227.6146Q26.75 227.70834 26.625 227.91147Q26.5 228.1146 26.5 228.44272Q26.5 228.72397 26.609375 228.94272Q26.703125 229.14584 26.890625 229.25522Q27.0625 229.3646 27.296875 229.3646L27.296875 231.0521Q26.890625 231.0521 26.53125 230.8646Q26.171875 230.6771 25.890625 230.31772Q25.609375 229.95834 25.453125 229.47397Q25.296875 228.97397 25.296875 228.34897Q25.296875 227.6146 25.546875 227.0521Q25.78125 226.47397 26.28125 226.14584Q26.765625 225.8021 27.5 225.8021L30.21875 225.8021Q30.734375 225.8021 31.078125 225.7396Q31.40625 225.6771 31.65625 225.5521L31.75 225.5521L31.75 227.25522Q31.484375 227.38022 31.109375 227.44272Q30.71875 227.50522 30.3125 227.50522ZM27.890625 227.28647L28.84375 227.27084L28.84375 228.20834Q28.84375 228.5521 28.921875 228.8021Q29.0 229.03647 29.140625 229.19272Q29.265625 229.34897 29.453125 229.4271Q29.640625 229.50522 29.84375 229.50522Q30.0625 229.50522 30.234375 229.41147Q30.40625 229.3021 30.515625 229.1146Q30.609375 228.9271 30.609375 228.6771Q30.609375 228.3021 30.453125 228.02084Q30.296875 227.7396 30.078125 227.58334Q29.859375 227.4271 29.65625 227.41147L30.375 226.97397Q30.609375 227.06772 30.875 227.22397Q31.125 227.38022 31.359375 227.63022Q31.578125 227.88022 31.734375 228.22397Q31.875 228.56772 31.875 229.0521Q31.875 229.64584 31.625 230.14584Q31.375 230.63022 30.953125 230.91147Q30.515625 231.19272 29.96875 231.19272Q29.46875 231.19272 29.09375 231.00522Q28.703125 230.81772 28.4375 230.45834Q28.15625 230.08334 28.03125 229.53647Q27.890625 228.9896 27.890625 228.25522L27.890625 227.28647ZM26.796875 223.2396L31.75 223.2396L31.75 224.9271L25.40625 224.9271L25.40625 223.33334L26.796875 223.2396ZM25.375 221.33334L26.9375 221.3646Q26.921875 221.47397 26.90625 221.66147Q26.890625 221.83334 26.890625 221.97397Q26.890625 222.31772 26.984375 222.58334Q27.0625 222.84897 27.25 223.02084Q27.421875 223.19272 27.671875 223.28647Q27.921875 223.3646 28.25 223.38022L28.140625 223.70834Q27.53125 223.70834 27.015625 223.59897Q26.484375 223.47397 26.109375 223.2396Q25.71875 222.9896 25.515625 222.64584Q25.296875 222.3021 25.296875 221.84897Q25.296875 221.70834 25.3125 221.56772Q25.328125 221.4271 25.375 221.33334ZM22.75 219.14584L31.75 219.14584L31.75 220.83334L22.75 220.83334L22.75 219.14584ZM31.03125 216.0521L25.40625 214.3646L25.40625 212.5521L32.703125 215.09897Q32.953125 215.1771 33.21875 215.31772Q33.5 215.45834 33.75 215.69272Q34.0 215.9271 34.15625 216.27084Q34.3125 216.6146 34.3125 217.13022Q34.3125 217.3646 34.28125 217.52084Q34.25 217.66147 34.203125 217.88022L32.96875 217.88022Q32.96875 217.81772 32.96875 217.75522Q32.96875 217.6771 32.96875 217.6146Q32.96875 217.27084 32.890625 217.06772Q32.8125 216.84897 32.65625 216.72397Q32.5 216.59897 32.265625 216.52084L31.03125 216.0521ZM25.40625 216.75522L30.0 215.3646L31.796875 215.13022L31.921875 216.28647L25.40625 218.5521L25.40625 216.75522ZM28.703125 205.50522L28.703125 207.6771L27.34375 207.6771L27.34375 205.50522Q27.34375 204.9896 27.171875 204.6771Q27.0 204.3646 26.703125 204.22397Q26.40625 204.06772 26.03125 204.06772Q25.65625 204.06772 25.328125 204.22397Q25.0 204.3646 24.796875 204.6771Q24.59375 204.9896 24.59375 205.50522L24.59375 207.06772L31.75 207.06772L31.75 208.81772L23.21875 208.81772L23.21875 205.50522Q23.21875 204.4896 23.578125 203.78647Q23.9375 203.06772 24.578125 202.69272Q25.203125 202.3021 26.015625 202.3021Q26.84375 202.3021 27.453125 202.69272Q28.046875 203.06772 28.375 203.78647Q28.703125 204.4896 28.703125 205.50522ZM30.3125 197.50522L27.5 197.50522Q27.1875 197.50522 26.96875 197.6146Q26.75 197.70834 26.625 197.91147Q26.5 198.1146 26.5 198.44272Q26.5 198.72397 26.609375 198.94272Q26.703125 199.14584 26.890625 199.25522Q27.0625 199.3646 27.296875 199.3646L27.296875 201.0521Q26.890625 201.0521 26.53125 200.8646Q26.171875 200.6771 25.890625 200.31772Q25.609375 199.95834 25.453125 199.47397Q25.296875 198.97397 25.296875 198.34897Q25.296875 197.6146 25.546875 197.0521Q25.78125 196.47397 26.28125 196.14584Q26.765625 195.8021 27.5 195.8021L30.21875 195.8021Q30.734375 195.8021 31.078125 195.7396Q31.40625 195.6771 31.65625 195.5521L31.75 195.5521L31.75 197.25522Q31.484375 197.38022 31.109375 197.44272Q30.71875 197.50522 30.3125 197.50522ZM27.890625 197.28647L28.84375 197.27084L28.84375 198.20834Q28.84375 198.5521 28.921875 198.8021Q29.0 199.03647 29.140625 199.19272Q29.265625 199.34897 29.453125 199.4271Q29.640625 199.50522 29.84375 199.50522Q30.0625 199.50522 30.234375 199.41147Q30.40625 199.3021 30.515625 199.1146Q30.609375 198.9271 30.609375 198.6771Q30.609375 198.3021 30.453125 198.02084Q30.296875 197.7396 30.078125 197.58334Q29.859375 197.4271 29.65625 197.41147L30.375 196.97397Q30.609375 197.06772 30.875 197.22397Q31.125 197.38022 31.359375 197.63022Q31.578125 197.88022 31.734375 198.22397Q31.875 198.56772 31.875 199.0521Q31.875 199.64584 31.625 200.14584Q31.375 200.63022 30.953125 200.91147Q30.515625 201.19272 29.96875 201.19272Q29.46875 201.19272 29.09375 201.00522Q28.703125 200.81772 28.4375 200.45834Q28.15625 200.08334 28.03125 199.53647Q27.890625 198.9896 27.890625 198.25522L27.890625 197.28647ZM25.40625 191.81772L26.609375 191.81772L26.609375 195.50522L25.40625 195.50522L25.40625 191.81772ZM23.84375 194.59897L23.84375 192.91147L29.84375 192.91147Q30.109375 192.91147 30.265625 192.84897Q30.40625 192.77084 30.46875 192.63022Q30.515625 192.47397 30.515625 192.25522Q30.515625 192.08334 30.5 191.95834Q30.484375 191.83334 30.46875 191.75522L31.71875 191.7396Q31.78125 191.95834 31.828125 192.20834Q31.875 192.45834 31.875 192.77084Q31.875 193.33334 31.6875 193.7396Q31.5 194.14584 31.09375 194.38022Q30.671875 194.59897 30.015625 194.59897L23.84375 194.59897ZM26.796875 189.2396L31.75 189.2396L31.75 190.9271L25.40625 190.9271L25.40625 189.33334L26.796875 189.2396ZM25.375 187.33334L26.9375 187.3646Q26.921875 187.47397 26.90625 187.66147Q26.890625 187.83334 26.890625 187.97397Q26.890625 188.31772 26.984375 188.58334Q27.0625 188.84897 27.25 189.02084Q27.421875 189.19272 27.671875 189.28647Q27.921875 189.3646 28.25 189.38022L28.140625 189.70834Q27.53125 189.70834 27.015625 189.59897Q26.484375 189.47397 26.109375 189.2396Q25.71875 188.9896 25.515625 188.64584Q25.296875 188.3021 25.296875 187.84897Q25.296875 187.70834 25.3125 187.56772Q25.328125 187.4271 25.375 187.33334ZM28.640625 187.19272L28.515625 187.19272Q27.828125 187.19272 27.234375 187.00522Q26.640625 186.8021 26.21875 186.4271Q25.78125 186.03647 25.546875 185.4896Q25.296875 184.9271 25.296875 184.20834Q25.296875 183.47397 25.546875 182.91147Q25.78125 182.34897 26.21875 181.97397Q26.640625 181.58334 27.234375 181.39584Q27.828125 181.19272 28.515625 181.19272L28.640625 181.19272Q29.328125 181.19272 29.921875 181.39584Q30.515625 181.58334 30.953125 181.97397Q31.390625 182.34897 31.640625 182.91147Q31.875 183.47397 31.875 184.19272Q31.875 184.91147 31.640625 185.47397Q31.390625 186.03647 30.953125 186.4271Q30.515625 186.8021 29.921875 187.00522Q29.328125 187.19272 28.640625 187.19272ZM28.515625 185.50522L28.640625 185.50522Q29.046875 185.50522 29.390625 185.44272Q29.734375 185.3646 30.0 185.20834Q30.25 185.0521 30.40625 184.8021Q30.546875 184.5521 30.546875 184.19272Q30.546875 183.83334 30.40625 183.58334Q30.25 183.33334 30.0 183.19272Q29.734375 183.03647 29.390625 182.95834Q29.046875 182.88022 28.640625 182.88022L28.515625 182.88022Q28.140625 182.88022 27.796875 182.95834Q27.453125 183.03647 27.1875 183.19272Q26.921875 183.33334 26.765625 183.59897Q26.609375 183.84897 26.609375 184.20834Q26.609375 184.5521 26.765625 184.8021Q26.921875 185.0521 27.1875 185.20834Q27.453125 185.3646 27.796875 185.44272Q28.140625 185.50522 28.515625 185.50522ZM26.765625 178.27084L31.75 178.27084L31.75 179.95834L25.40625 179.95834L25.40625 178.38022L26.765625 178.27084ZM28.359375 178.52084L28.359375 178.97397Q27.65625 178.97397 27.09375 178.8021Q26.515625 178.6146 26.125 178.28647Q25.71875 177.95834 25.515625 177.50522Q25.296875 177.0521 25.296875 176.4896Q25.296875 176.03647 25.421875 175.6771Q25.546875 175.3021 25.828125 175.03647Q26.109375 174.77084 26.578125 174.63022Q27.03125 174.4896 27.703125 174.4896L31.75 174.4896L31.75 176.1771L27.703125 176.1771Q27.28125 176.1771 27.046875 176.3021Q26.8125 176.41147 26.71875 176.64584Q26.609375 176.8646 26.609375 177.19272Q26.609375 177.53647 26.75 177.78647Q26.890625 178.03647 27.125 178.19272Q27.359375 178.34897 27.6875 178.44272Q28.0 178.52084 28.359375 178.52084ZM30.3125 169.50522L27.5 169.50522Q27.1875 169.50522 26.96875 169.6146Q26.75 169.70834 26.625 169.91147Q26.5 170.1146 26.5 170.44272Q26.5 170.72397 26.609375 170.94272Q26.703125 171.14584 26.890625 171.25522Q27.0625 171.3646 27.296875 171.3646L27.296875 173.0521Q26.890625 173.0521 26.53125 172.8646Q26.171875 172.6771 25.890625 172.31772Q25.609375 171.95834 25.453125 171.47397Q25.296875 170.97397 25.296875 170.34897Q25.296875 169.6146 25.546875 169.0521Q25.78125 168.47397 26.28125 168.14584Q26.765625 167.8021 27.5 167.8021L30.21875 167.8021Q30.734375 167.8021 31.078125 167.7396Q31.40625 167.6771 31.65625 167.5521L31.75 167.5521L31.75 169.25522Q31.484375 169.38022 31.109375 169.44272Q30.71875 169.50522 30.3125 169.50522ZM27.890625 169.28647L28.84375 169.27084L28.84375 170.20834Q28.84375 170.5521 28.921875 170.8021Q29.0 171.03647 29.140625 171.19272Q29.265625 171.34897 29.453125 171.4271Q29.640625 171.50522 29.84375 171.50522Q30.0625 171.50522 30.234375 171.41147Q30.40625 171.3021 30.515625 171.1146Q30.609375 170.9271 30.609375 170.6771Q30.609375 170.3021 30.453125 170.02084Q30.296875 169.7396 30.078125 169.58334Q29.859375 169.4271 29.65625 169.41147L30.375 168.97397Q30.609375 169.06772 30.875 169.22397Q31.125 169.38022 31.359375 169.63022Q31.578125 169.88022 31.734375 170.22397Q31.875 170.56772 31.875 171.0521Q31.875 171.64584 31.625 172.14584Q31.375 172.63022 30.953125 172.91147Q30.515625 173.19272 29.96875 173.19272Q29.46875 173.19272 29.09375 173.00522Q28.703125 172.81772 28.4375 172.45834Q28.15625 172.08334 28.03125 171.53647Q27.890625 170.9896 27.890625 170.25522L27.890625 169.28647ZM25.40625 162.91147L25.40625 161.38022L31.53125 161.38022Q32.40625 161.38022 33.015625 161.77084Q33.625 162.14584 33.9375 162.83334Q34.25 163.52084 34.25 164.4271Q34.25 164.83334 34.140625 165.27084Q34.03125 165.70834 33.8125 166.1146Q33.59375 166.52084 33.25 166.78647L32.25 166.03647Q32.59375 165.75522 32.78125 165.3646Q32.96875 164.97397 32.96875 164.50522Q32.96875 164.0521 32.796875 163.7396Q32.640625 163.41147 32.3125 163.25522Q32.0 163.08334 31.546875 163.08334L26.875 163.08334L25.40625 162.91147ZM28.65625 167.1771L28.53125 167.1771Q27.8125 167.1771 27.21875 167.00522Q26.609375 166.81772 26.1875 166.4896Q25.765625 166.16147 25.53125 165.69272Q25.296875 165.20834 25.296875 164.6146Q25.296875 163.97397 25.53125 163.5521Q25.765625 163.13022 26.203125 162.84897Q26.625 162.56772 27.203125 162.41147Q27.78125 162.25522 28.484375 162.1771L28.75 162.1771Q29.40625 162.25522 29.984375 162.44272Q30.546875 162.6146 30.96875 162.91147Q31.390625 163.19272 31.640625 163.6146Q31.875 164.03647 31.875 164.63022Q31.875 165.20834 31.640625 165.6771Q31.390625 166.14584 30.953125 166.4896Q30.515625 166.81772 29.9375 167.00522Q29.34375 167.1771 28.65625 167.1771ZM28.53125 165.4896L28.65625 165.4896Q29.046875 165.4896 29.390625 165.41147Q29.734375 165.33334 30.0 165.1771Q30.25 165.02084 30.390625 164.78647Q30.53125 164.53647 30.53125 164.19272Q30.53125 163.7396 30.34375 163.44272Q30.140625 163.14584 29.796875 163.00522Q29.453125 162.84897 29.0 162.83334L28.234375 162.83334Q27.859375 162.84897 27.5625 162.94272Q27.265625 163.02084 27.0625 163.1771Q26.84375 163.33334 26.734375 163.58334Q26.609375 163.83334 26.609375 164.1771Q26.609375 164.52084 26.765625 164.77084Q26.921875 165.00522 27.1875 165.1771Q27.4375 165.33334 27.78125 165.41147Q28.125 165.4896 28.53125 165.4896ZM31.875 157.00522Q31.875 157.7396 31.640625 158.33334Q31.390625 158.91147 30.96875 159.33334Q30.546875 159.7396 29.984375 159.95834Q29.421875 160.16147 28.796875 160.16147L28.5625 160.16147Q27.84375 160.16147 27.25 159.95834Q26.640625 159.75522 26.203125 159.38022Q25.765625 158.9896 25.53125 158.44272Q25.296875 157.88022 25.296875 157.19272Q25.296875 156.52084 25.515625 156.00522Q25.734375 155.47397 26.15625 155.13022Q26.5625 154.77084 27.140625 154.59897Q27.703125 154.41147 28.390625 154.41147L29.09375 154.41147L29.09375 159.44272L27.96875 159.44272L27.96875 156.06772L27.84375 156.06772Q27.5 156.06772 27.21875 156.19272Q26.9375 156.31772 26.78125 156.56772Q26.609375 156.81772 26.609375 157.20834Q26.609375 157.5521 26.765625 157.78647Q26.90625 158.02084 27.171875 158.1771Q27.4375 158.33334 27.796875 158.41147Q28.140625 158.47397 28.5625 158.47397L28.796875 158.47397Q29.171875 158.47397 29.5 158.3646Q29.828125 158.25522 30.0625 158.0521Q30.296875 157.84897 30.421875 157.56772Q30.546875 157.27084 30.546875 156.89584Q30.546875 156.44272 30.375 156.0521Q30.1875 155.66147 29.828125 155.3646L30.71875 154.5521Q31.0 154.7396 31.265625 155.08334Q31.53125 155.4271 31.703125 155.91147Q31.875 156.39584 31.875 157.00522Z" fill-rule="nonzero"/><path fill="#000000" d="M59.8125 315.3017L59.8125 316.6142Q59.8125 317.66107 59.625 318.37982Q59.4375 319.09857 59.078125 319.53607Q58.734375 319.97357 58.234375 320.1767Q57.75 320.37982 57.125 320.37982Q56.640625 320.37982 56.21875 320.25482Q55.796875 320.12982 55.46875 319.8642Q55.140625 319.58295 54.90625 319.14545Q54.671875 318.70795 54.546875 318.08295Q54.421875 317.44232 54.421875 316.6142L54.421875 315.3017Q54.421875 314.25482 54.609375 313.5517Q54.8125 312.84857 55.15625 312.41107Q55.515625 311.97357 56.0 311.78607Q56.5 311.59857 57.109375 311.59857Q57.609375 311.59857 58.03125 311.72357Q58.453125 311.84857 58.78125 312.1142Q59.109375 312.3642 59.328125 312.8017Q59.5625 313.22357 59.6875 313.84857Q59.8125 314.47357 59.8125 315.3017ZM58.71875 316.78607L58.71875 315.12982Q58.71875 314.5517 58.65625 314.1142Q58.59375 313.6767 58.453125 313.3642Q58.328125 313.0517 58.125 312.8642Q57.9375 312.6767 57.6875 312.58295Q57.4375 312.4892 57.109375 312.4892Q56.734375 312.4892 56.421875 312.62982Q56.125 312.77045 55.921875 313.08295Q55.71875 313.39545 55.609375 313.91107Q55.515625 314.41107 55.515625 315.12982L55.515625 316.78607Q55.515625 317.3642 55.578125 317.8017Q55.65625 318.2392 55.78125 318.56732Q55.921875 318.87982 56.109375 319.08295Q56.3125 319.28607 56.5625 319.37982Q56.8125 319.47357 57.125 319.47357Q57.53125 319.47357 57.828125 319.33295Q58.125 319.1767 58.328125 318.84857Q58.53125 318.52045 58.625 318.02045Q58.71875 317.50482 58.71875 316.78607ZM65.09375 311.72357L66.1875 311.72357L68.984375 318.6767L71.78125 311.72357L72.875 311.72357L69.40625 320.25482L68.5625 320.25482L65.09375 311.72357ZM64.734375 311.72357L65.703125 311.72357L65.859375 316.9267L65.859375 320.25482L64.734375 320.25482L64.734375 311.72357ZM72.265625 311.72357L73.234375 311.72357L73.234375 320.25482L72.109375 320.25482L72.109375 316.9267L72.265625 311.72357Z" fill-rule="nonzero"/><path fill="#000000" d="M58.015625 248.84216L58.015625 257.4203L56.9375 257.4203L56.9375 250.20154L54.75 250.99841L54.75 250.01404L57.859375 248.84216L58.015625 248.84216ZM65.09375 248.88904L66.1875 248.88904L68.984375 255.84216L71.78125 248.88904L72.875 248.88904L69.40625 257.4203L68.5625 257.4203L65.09375 248.88904ZM64.734375 248.88904L65.703125 248.88904L65.859375 254.09216L65.859375 257.4203L64.734375 257.4203L64.734375 248.88904ZM72.265625 248.88904L73.234375 248.88904L73.234375 257.4203L72.109375 257.4203L72.109375 254.09216L72.265625 248.88904Z" fill-rule="nonzero"/><path fill="#000000" d="M60.046875 193.69511L60.046875 194.58574L54.46875 194.58574L54.46875 193.80449L57.265625 190.69511Q57.78125 190.11699 58.0625 189.72636Q58.34375 189.32011 58.453125 189.00761Q58.578125 188.67949 58.578125 188.35136Q58.578125 187.92949 58.40625 187.58574Q58.234375 187.24199 57.890625 187.03886Q57.5625 186.82011 57.078125 186.82011Q56.515625 186.82011 56.140625 187.05449Q55.765625 187.27324 55.578125 187.66386Q55.390625 188.05449 55.390625 188.55449L54.296875 188.55449Q54.296875 187.83574 54.609375 187.24199Q54.9375 186.64824 55.546875 186.28886Q56.171875 185.92949 57.078125 185.92949Q57.890625 185.92949 58.46875 186.22636Q59.046875 186.50761 59.34375 187.02324Q59.65625 187.52324 59.65625 188.21074Q59.65625 188.58574 59.53125 188.97636Q59.40625 189.35136 59.1875 189.74199Q58.96875 190.11699 58.671875 190.49199Q58.390625 190.85136 58.0625 191.21074L55.765625 193.69511L60.046875 193.69511ZM65.09375 186.05449L66.1875 186.05449L68.984375 193.00761L71.78125 186.05449L72.875 186.05449L69.40625 194.58574L68.5625 194.58574L65.09375 186.05449ZM64.734375 186.05449L65.703125 186.05449L65.859375 191.25761L65.859375 194.58574L64.734375 194.58574L64.734375 186.05449ZM72.265625 186.05449L73.234375 186.05449L73.234375 194.58574L72.109375 194.58574L72.109375 191.25761L72.265625 186.05449Z" fill-rule="nonzero"/><path fill="#000000" d="M56.046875 126.95433L56.8125 126.95433Q57.390625 126.95433 57.75 126.76683Q58.125 126.563705 58.3125 126.23558Q58.5 125.907455 58.5 125.48558Q58.5 125.001205 58.328125 124.67308Q58.171875 124.32933 57.84375 124.157455Q57.515625 123.98558 57.015625 123.98558Q56.546875 123.98558 56.203125 124.17308Q55.859375 124.344955 55.65625 124.67308Q55.46875 125.001205 55.46875 125.45433L54.375 125.45433Q54.375 124.79808 54.703125 124.26683Q55.03125 123.73558 55.625 123.42308Q56.21875 123.094955 57.015625 123.094955Q57.78125 123.094955 58.359375 123.376205Q58.9375 123.64183 59.265625 124.188705Q59.59375 124.719955 59.59375 125.51683Q59.59375 125.844955 59.4375 126.20433Q59.28125 126.563705 58.96875 126.89183Q58.65625 127.20433 58.15625 127.407455Q57.671875 127.61058 56.96875 127.61058L56.046875 127.61058L56.046875 126.95433ZM56.046875 127.844955L56.046875 127.188705L56.96875 127.188705Q57.78125 127.188705 58.3125 127.39183Q58.84375 127.57933 59.15625 127.907455Q59.46875 128.21996 59.59375 128.61058Q59.71875 128.98558 59.71875 129.3762Q59.71875 129.96996 59.515625 130.4387Q59.3125 130.89183 58.9375 131.21996Q58.578125 131.53246 58.078125 131.70433Q57.59375 131.8762 57.015625 131.8762Q56.453125 131.8762 55.96875 131.71996Q55.484375 131.54808 55.109375 131.2512Q54.734375 130.95433 54.515625 130.51683Q54.3125 130.0637 54.3125 129.5012L55.390625 129.5012Q55.390625 129.9387 55.578125 130.28246Q55.78125 130.61058 56.140625 130.79808Q56.515625 130.96996 57.015625 130.96996Q57.515625 130.96996 57.875 130.79808Q58.234375 130.6262 58.421875 130.28246Q58.625 129.92308 58.625 129.39183Q58.625 128.86058 58.40625 128.51683Q58.1875 128.17308 57.765625 128.01683Q57.359375 127.844955 56.8125 127.844955L56.046875 127.844955ZM65.09375 123.219955L66.1875 123.219955L68.984375 130.17308L71.78125 123.219955L72.875 123.219955L69.40625 131.7512L68.5625 131.7512L65.09375 123.219955ZM64.734375 123.219955L65.703125 123.219955L65.859375 128.42308L65.859375 131.7512L64.734375 131.7512L64.734375 123.219955ZM72.265625 123.219955L73.234375 123.219955L73.234375 131.7512L72.109375 131.7512L72.109375 128.42308L72.265625 123.219955Z" fill-rule="nonzero"/><path fill="#000000" d="M60.21875 66.041664L60.21875 66.93229L54.0625 66.93229L54.0625 66.291664L57.875 60.385414L58.765625 60.385414L57.8125 62.08854L55.296875 66.041664L60.21875 66.041664ZM59.03125 60.385414L59.03125 68.916664L57.953125 68.916664L57.953125 60.385414L59.03125 60.385414ZM65.09375 60.385414L66.1875 60.385414L68.984375 67.33854L71.78125 60.385414L72.875 60.385414L69.40625 68.916664L68.5625 68.916664L65.09375 60.385414ZM64.734375 60.385414L65.703125 60.385414L65.859375 65.58854L65.859375 68.916664L64.734375 68.916664L64.734375 60.385414ZM72.265625 60.385414L73.234375 60.385414L73.234375 68.916664L72.109375 68.916664L72.109375 65.58854L72.265625 60.385414Z" fill-rule="nonzero"/><path fill="#000000" d="M115.218704 342.2274L115.66402 342.9987L110.83322 345.78775L110.4426 345.11118L111.310074 341.01993Q111.46755 340.26144 111.515816 339.78253Q111.55626 339.29007 111.49473 338.96475Q111.43892 338.6181 111.27486 338.33392Q111.06392 337.96857 110.743195 337.7568Q110.42247 337.54504 110.02322 337.54102Q109.62968 337.51566 109.21019 337.75784Q108.72305 338.0391 108.51548 338.42957Q108.300095 338.8065 108.33303 339.23853Q108.36596 339.6706 108.61596 340.10358L107.66875 340.65045Q107.30937 340.028 107.28313 339.35754Q107.270424 338.6793 107.61847 338.0634Q107.98004 337.43964 108.76488 336.9865Q109.46853 336.58026 110.11764 336.5483Q110.758934 336.5028 111.27384 336.80093Q111.79448 337.0777 112.13823 337.6731Q112.32573 337.99783 112.41279 338.39862Q112.492035 338.7859 112.4979 339.23355Q112.49596 339.6677 112.42636 340.1409Q112.36248 340.59274 112.258 341.06802L111.51103 344.368L115.218704 342.2274ZM119.04665 335.32635L119.7029 336.463Q120.22634 337.36963 120.42333 338.08582Q120.62033 338.80203 120.527855 339.3606Q120.448906 339.91138 120.117455 340.33728Q119.79954 340.75537 119.25827 341.06787Q118.8388 341.31006 118.41094 341.41275Q117.983086 341.51544 117.56611 341.44946Q117.14132 341.36993 116.7196 341.10825Q116.297874 340.84656 115.87712 340.3678Q115.448555 339.8755 115.03449 339.1583L114.37824 338.02164Q113.854805 337.11502 113.66562 336.41235Q113.48997 335.70187 113.56892 335.1511Q113.66139 334.59253 113.98712 334.18796Q114.326385 333.77557 114.85412 333.47092Q115.287125 333.22092 115.71498 333.11823Q116.14284 333.01553 116.559814 333.0815Q116.96898 333.13394 117.377174 333.40347Q117.791084 333.65164 118.21184 334.1304Q118.63259 334.60916 119.04665 335.32635ZM118.84162 337.15872L118.0135 335.72437Q117.724434 335.2237 117.45156 334.87607Q117.17869 334.5284 116.90065 334.3281Q116.63615 334.11996 116.366486 334.05914Q116.11035 333.9905 115.84698 334.03433Q115.583595 334.07816 115.29943 334.24222Q114.97468 334.42972 114.77435 334.70773Q114.58756 334.97797 114.5679 335.35016Q114.54824 335.72235 114.711334 336.22357Q114.88014 336.70346 115.23952 337.32593L116.06764 338.76028Q116.356705 339.26096 116.629585 339.60858Q116.91599 339.94843 117.18831 340.17007Q117.46634 340.3704 117.730286 340.45255Q118.00776 340.52692 118.27114 340.4831Q118.53452 340.4393 118.805145 340.28305Q119.15697 340.07993 119.34376 339.8097Q119.522736 339.52594 119.534584 339.1402Q119.54643 338.7545 119.377625 338.2746Q119.201 337.7812 118.84162 337.15872ZM121.74019 329.58545L126.02925 337.0143L125.09557 337.55338L121.4862 331.30176L119.990204 333.0856L119.49802 332.23312L121.60487 329.66357L121.74019 329.58545ZM132.51839 330.59756Q132.90901 331.27414 132.87122 331.92743Q132.82562 332.5672 132.43279 333.1368Q132.04568 333.68506 131.38263 334.06787Q130.71957 334.45068 130.03769 334.51962Q129.36151 334.5672 128.78467 334.2868Q128.2 333.9929 127.80937 333.3163Q127.55937 332.8833 127.524345 332.41638Q127.48151 331.93594 127.63648 331.48563Q127.791466 331.0353 128.125 330.64426Q128.47208 330.24542 128.98628 329.94855Q129.67639 329.5501 130.35257 329.5025Q131.02875 329.45493 131.60559 329.73532Q132.18245 330.01572 132.51839 330.59756ZM131.56335 331.13092Q131.32117 330.71143 130.96558 330.50177Q130.60216 330.27856 130.17584 330.29016Q129.74951 330.30173 129.33003 330.5439Q128.89702 330.7939 128.68736 331.14954Q128.47769 331.50513 128.48927 331.93146Q128.50659 332.33643 128.74878 332.75592Q128.99097 333.17538 129.33302 333.39285Q129.68082 333.589 130.0858 333.5717Q130.49649 333.53305 130.9295 333.28305Q131.36252 333.03305 131.5878 332.7045Q131.81882 332.3546 131.80933 331.96317Q131.80554 331.55038 131.56335 331.13092ZM130.34247 327.23502Q130.65497 327.7763 130.6208 328.37335Q130.58664 328.97043 130.2266 329.50308Q129.88008 330.0279 129.25763 330.38727Q128.62164 330.75446 127.98035 330.79996Q127.35258 330.83762 126.81841 330.56866Q126.29778 330.29193 125.98528 329.75064Q125.61028 329.10114 125.6231 328.49832Q125.64945 327.88773 125.99597 327.3629Q126.35602 326.8303 126.992004 326.4631Q127.62799 326.09592 128.25575 326.05823Q128.88351 326.02054 129.42549 326.303Q129.96747 326.5855 130.34247 327.23502ZM129.4166 327.78763Q129.20566 327.42227 128.87923 327.23184Q128.55278 327.04144 128.17487 327.04312Q127.80267 327.02347 127.43732 327.2344Q127.058426 327.45316 126.86801 327.77957Q126.68332 328.0847 126.69853 328.45477Q126.713745 328.8249 126.94031 329.21732Q127.15906 329.5962 127.47197 329.79443Q127.78488 329.99265 128.1628 329.99097Q128.54071 329.9893 128.90607 329.77835Q129.27142 329.5674 129.4483 329.24878Q129.63872 328.92233 129.63704 328.54443Q129.63535 328.1665 129.4166 327.78763Z" fill-rule="nonzero"/><path fill="#000000" d="M183.31395 342.2274L183.75926 342.9987L178.92845 345.78775L178.53783 345.11118L179.4053 341.01993Q179.56279 340.26144 179.61105 339.78253Q179.65149 339.29007 179.58997 338.96475Q179.53415 338.6181 179.37009 338.33392Q179.15915 337.96857 178.83844 337.7568Q178.51772 337.54504 178.11845 337.54102Q177.72491 337.51566 177.30544 337.75784Q176.8183 338.0391 176.61072 338.42957Q176.39534 338.8065 176.42827 339.23853Q176.4612 339.6706 176.7112 340.10358L175.76399 340.65045Q175.40462 340.028 175.37837 339.35754Q175.36566 338.6793 175.7137 338.0634Q176.07529 337.43964 176.86012 336.9865Q177.56377 336.58026 178.21288 336.5483Q178.85417 336.5028 179.36908 336.80093Q179.88971 337.0777 180.23346 337.6731Q180.42096 337.99783 180.50803 338.39862Q180.58727 338.7859 180.59314 339.23355Q180.5912 339.6677 180.52159 340.1409Q180.45772 340.59274 180.35324 341.06802L179.60628 344.368L183.31395 342.2274ZM187.14189 335.32632L187.79814 336.46298Q188.32158 337.36963 188.51859 338.08582Q188.71558 338.80203 188.6231 339.3606Q188.54414 339.91138 188.2127 340.33728Q187.89478 340.75537 187.35352 341.06787Q186.93404 341.31006 186.50618 341.41275Q186.07832 341.51544 185.66135 341.44946Q185.23656 341.36993 184.81483 341.10825Q184.39311 340.84656 183.97235 340.3678Q183.5438 339.8755 183.12973 339.1583L182.47348 338.02164Q181.95004 337.11502 181.76086 336.41235Q181.5852 335.70187 181.66415 335.1511Q181.75664 334.59253 182.08237 334.18796Q182.42163 333.77557 182.94936 333.4709Q183.38237 333.2209 183.81023 333.11823Q184.23808 333.01553 184.65506 333.0815Q185.06422 333.13394 185.47241 333.40347Q185.88632 333.65164 186.30708 334.1304Q186.72783 334.60916 187.14189 335.32632ZM186.93687 337.15872L186.10875 335.72437Q185.81969 335.2237 185.5468 334.87607Q185.27393 334.5284 184.9959 334.3281Q184.73138 334.11996 184.46173 334.05914Q184.2056 333.9905 183.94221 334.03433Q183.67883 334.07816 183.39467 334.24222Q183.06992 334.42972 182.8696 334.70773Q182.6828 334.97797 182.66315 335.35016Q182.64348 335.72235 182.80656 336.22357Q182.97539 336.70346 183.33476 337.32593L184.16289 338.76028Q184.45195 339.26096 184.72482 339.60858Q185.01123 339.94843 185.28354 340.17007Q185.56158 340.3704 185.82552 340.45255Q186.103 340.52692 186.36638 340.4831Q186.62976 340.4393 186.90039 340.28305Q187.25221 340.07993 187.439 339.8097Q187.61798 339.52594 187.62982 339.1402Q187.64168 338.7545 187.47287 338.2746Q187.29625 337.7812 186.93687 337.15872ZM189.83543 329.58542L194.1245 337.0143L193.19081 337.55338L189.58144 331.30176L188.08545 333.0856L187.59326 332.23312L189.70012 329.66354L189.83543 329.58542ZM197.58202 333.97165L197.69028 333.90915Q198.50217 333.4404 198.87003 332.9213Q199.25142 332.3944 199.3033 331.85925Q199.34737 331.31058 199.16084 330.76877Q198.98785 330.21912 198.69879 329.71844L198.04254 328.5818Q197.75348 328.08112 197.40512 327.75903Q197.07031 327.4291 196.7189 327.28918Q196.3732 327.12793 196.03798 327.14105Q195.70276 327.15417 195.4186 327.31824Q195.09383 327.50574 194.91486 327.7895Q194.72806 328.05972 194.68497 328.39133Q194.64186 328.7229 194.73465 329.10236Q194.83315 329.46045 195.04408 329.8258Q195.2394 330.1641 195.50027 330.42847Q195.75333 330.6793 196.06415 330.84262Q196.38069 330.98465 196.71019 330.99286Q197.05324 330.9933 197.39153 330.79797Q197.70276 330.6183 197.90308 330.34024Q198.10912 330.04086 198.20062 329.69934Q198.29213 329.35785 198.25766 329.0169Q198.23672 328.66815 198.07838 328.36264L198.52493 328.10483Q198.76712 328.5243 198.83911 329.02402Q198.9111 329.5237 198.80872 330.03387Q198.71986 330.53622 198.4311 330.97357Q198.14807 331.3896 197.68799 331.6552Q197.1332 331.97552 196.61005 332.00693Q196.09264 332.01697 195.63242 331.8136Q195.16437 331.59668 194.79259 331.23398Q194.413 330.85773 194.15518 330.4112Q193.8505 329.88345 193.72018 329.34525Q193.60341 328.79926 193.68445 328.28336Q193.779 327.75967 194.08131 327.3145Q194.39714 326.8615 194.96547 326.5334Q195.60146 326.1662 196.19643 326.1655Q196.79141 326.1648 197.32558 326.43375Q197.85193 326.68915 198.28621 327.16013Q198.72621 327.6097 199.04652 328.16452L199.24184 328.5028Q199.57777 329.08466 199.84035 329.72693Q200.10863 330.34787 200.21814 331.00632Q200.32767 331.66476 200.17744 332.31082Q200.0272 332.95685 199.53966 333.58115Q199.05783 334.18408 198.15121 334.70752L198.04295 334.77002L197.58202 333.97165Z" fill-rule="nonzero"/><path fill="#000000" d="M251.4092 342.2274L251.8545 342.9987L247.0237 345.78775L246.63307 345.11115L247.50055 341.01993Q247.65804 340.26144 247.7063 339.78253Q247.74673 339.29007 247.68521 338.96475Q247.6294 338.6181 247.46533 338.33392Q247.2544 337.96857 246.93369 337.7568Q246.61296 337.54504 246.2137 337.54102Q245.82016 337.51562 245.40068 337.7578Q244.91354 338.03906 244.70596 338.42953Q244.49059 338.8065 244.52351 339.23853Q244.55644 339.67056 244.80644 340.10358L243.85922 340.65045Q243.49985 340.028 243.47362 339.35754Q243.4609 338.6793 243.80894 338.0634Q244.17053 337.43964 244.95537 336.9865Q245.65901 336.58026 246.30812 336.5483Q246.94942 336.5028 247.46432 336.80093Q247.98495 337.0777 248.3287 337.67307Q248.5162 337.99783 248.60327 338.39862Q248.68251 338.7859 248.68839 339.23355Q248.68645 339.6677 248.61684 340.1409Q248.55296 340.59274 248.44849 341.06802L247.70152 344.368L251.4092 342.2274ZM255.23714 335.32632L255.89339 336.46298Q256.41684 337.3696 256.61383 338.08582Q256.81082 338.80203 256.71835 339.3606Q256.6394 339.91135 256.30795 340.33728Q255.99002 340.75537 255.44876 341.06787Q255.02928 341.31006 254.60143 341.41275Q254.17357 341.5154 253.75659 341.44946Q253.3318 341.36993 252.91008 341.10825Q252.48836 340.84656 252.0676 340.36777Q251.63904 339.8755 251.22498 339.1583L250.56873 338.02164Q250.04529 337.11502 249.85611 336.41235Q249.68045 335.70187 249.7594 335.1511Q249.85188 334.59253 250.17761 334.18796Q250.51688 333.77557 251.0446 333.4709Q251.47762 333.2209 251.90547 333.11823Q252.33333 333.01553 252.7503 333.0815Q253.15947 333.13394 253.56766 333.40347Q253.98157 333.6516 254.40233 334.1304Q254.82307 334.60916 255.23714 335.32632ZM255.03212 337.15872L254.204 335.72437Q253.91493 335.2237 253.64204 334.87607Q253.36917 334.5284 253.09114 334.3281Q252.82663 334.11996 252.55698 334.05914Q252.30084 333.9905 252.03746 334.03433Q251.77408 334.07812 251.48991 334.2422Q251.16516 334.4297 250.96484 334.70773Q250.77805 334.97797 250.75839 335.35016Q250.73872 335.72235 250.90181 336.22357Q251.07063 336.70346 251.43001 337.32593L252.25813 338.76028Q252.5472 339.26096 252.82007 339.60858Q253.10648 339.9484 253.37878 340.17007Q253.65683 340.3704 253.92076 340.45255Q254.19824 340.52692 254.46162 340.4831Q254.725 340.43927 254.99564 340.28302Q255.34746 340.0799 255.53424 339.8097Q255.71323 339.52594 255.72507 339.1402Q255.73692 338.7545 255.56812 338.2746Q255.3915 337.78116 255.03212 337.15872ZM263.53354 335.2274L263.97885 335.9987L259.14807 338.78775L258.75745 338.11115L259.6249 334.01993Q259.78238 333.26144 259.83066 332.78253Q259.8711 332.29007 259.80957 331.96475Q259.75375 331.6181 259.5897 331.33392Q259.37875 330.96857 259.05804 330.7568Q258.7373 330.54504 258.33804 330.54102Q257.94452 330.51562 257.52502 330.7578Q257.0379 331.03906 256.83032 331.42953Q256.61493 331.8065 256.64786 332.23853Q256.6808 332.67056 256.9308 333.10358L255.98358 333.65045Q255.6242 333.028 255.59796 332.35754Q255.58525 331.6793 255.9333 331.0634Q256.2949 330.43964 257.0797 329.9865Q257.78336 329.58026 258.43246 329.5483Q259.07376 329.5028 259.58868 329.80093Q260.1093 330.0777 260.45306 330.67307Q260.64056 330.99783 260.72763 331.39862Q260.8069 331.7859 260.81274 332.23355Q260.8108 332.6677 260.7412 333.1409Q260.6773 333.59274 260.57285 334.06802L259.82587 337.368L263.53354 335.2274ZM267.3615 328.32632L268.01776 329.46298Q268.5412 330.3696 268.7382 331.08582Q268.93518 331.80203 268.8427 332.3606Q268.76376 332.91135 268.4323 333.33728Q268.11438 333.75537 267.57312 334.06787Q267.15363 334.31006 266.72577 334.41275Q266.2979 334.5154 265.88095 334.44946Q265.45615 334.36993 265.03442 334.10825Q264.6127 333.84656 264.19196 333.36777Q263.7634 332.8755 263.34933 332.1583L262.69308 331.02164Q262.16965 330.11502 261.98047 329.41235Q261.8048 328.70187 261.88376 328.1511Q261.97623 327.59253 262.30197 327.18796Q262.64124 326.77557 263.16895 326.4709Q263.60196 326.2209 264.02982 326.11823Q264.45767 326.01553 264.87466 326.0815Q265.2838 326.13394 265.69202 326.40347Q266.10593 326.6516 266.52667 327.1304Q266.94745 327.60916 267.3615 328.32632ZM267.15646 330.15872L266.32834 328.72437Q266.03928 328.2237 265.76642 327.87607Q265.49353 327.5284 265.21548 327.3281Q264.951 327.11996 264.68134 327.05914Q264.4252 326.9905 264.1618 327.03433Q263.89844 327.07812 263.61426 327.2422Q263.28952 327.4297 263.0892 327.70773Q262.9024 327.97797 262.88275 328.35016Q262.86307 328.72235 263.02618 329.22357Q263.19498 329.70346 263.55435 330.32593L264.38248 331.76028Q264.67154 332.26096 264.94443 332.60858Q265.23083 332.9484 265.50314 333.17007Q265.7812 333.3704 266.04514 333.45255Q266.3226 333.52692 266.58597 333.4831Q266.84937 333.43927 267.12 333.28302Q267.4718 333.0799 267.6586 332.8097Q267.8376 332.52594 267.84943 332.1402Q267.86127 331.7545 267.69247 331.2746Q267.51584 330.78116 267.15646 330.15872Z" fill-rule="nonzero"/><path fill="#000000" d="M319.50443 342.22736L319.94974 342.9987L315.11896 345.78775L314.72833 345.11115L315.5958 341.01993Q315.7533 340.26144 315.80154 339.78253Q315.84198 339.29007 315.78046 338.96475Q315.72464 338.61807 315.56058 338.33392Q315.34964 337.96857 315.02893 337.7568Q314.7082 337.54504 314.30893 337.54102Q313.9154 337.51562 313.4959 337.7578Q313.0088 338.03906 312.8012 338.42953Q312.58582 338.8065 312.61874 339.23853Q312.6517 339.67056 312.9017 340.10358L311.95447 340.65045Q311.5951 340.028 311.56885 339.35754Q311.55615 338.6793 311.9042 338.0634Q312.26578 337.43964 313.0506 336.9865Q313.75424 336.58026 314.40335 336.5483Q315.04465 336.5028 315.55957 336.80093Q316.0802 337.0777 316.42395 337.67307Q316.61145 337.99783 316.69852 338.39862Q316.77777 338.7859 316.78363 339.23355Q316.78168 339.6677 316.7121 340.14087Q316.6482 340.59274 316.54373 341.06802L315.79675 344.36798L319.50443 342.22736ZM323.3324 335.32632L323.98865 336.46298Q324.5121 337.3696 324.70908 338.08582Q324.90607 338.80203 324.8136 339.3606Q324.73465 339.91135 324.4032 340.33728Q324.08527 340.75537 323.544 341.06787Q323.1245 341.31006 322.69666 341.41275Q322.26883 341.5154 321.85184 341.44943Q321.42706 341.36993 321.0053 341.10825Q320.5836 340.84653 320.16284 340.36777Q319.73428 339.8755 319.32022 339.1583L318.66397 338.02164Q318.14053 337.11502 317.95135 336.41235Q317.7757 335.70187 317.85464 335.1511Q317.9471 334.59253 318.27286 334.18796Q318.61212 333.77557 319.13986 333.4709Q319.57288 333.2209 320.0007 333.1182Q320.42856 333.01553 320.84555 333.0815Q321.2547 333.13394 321.6629 333.40344Q322.0768 333.6516 322.49756 334.1304Q322.91833 334.60916 323.3324 335.32632ZM323.12735 337.15872L322.29922 335.72437Q322.01016 335.2237 321.7373 334.87604Q321.46442 334.5284 321.18637 334.3281Q320.92188 334.11996 320.65222 334.05914Q320.3961 333.9905 320.13272 334.03433Q319.86932 334.07812 319.58517 334.2422Q319.2604 334.4297 319.0601 334.70773Q318.8733 334.97797 318.85364 335.35016Q318.83398 335.72235 318.99707 336.22357Q319.16586 336.70346 319.52524 337.32593L320.35336 338.76028Q320.64243 339.26096 320.9153 339.60858Q321.20172 339.9484 321.47403 340.17007Q321.75208 340.3704 322.01602 340.45255Q322.2935 340.5269 322.55685 340.4831Q322.82025 340.43927 323.09088 340.28302Q323.4427 340.0799 323.6295 339.8097Q323.80847 339.52594 323.8203 339.1402Q323.83215 338.7545 323.66336 338.2746Q323.48672 337.78116 323.12735 337.15872ZM331.62878 335.22736L332.0741 335.9987L327.24332 338.78775L326.8527 338.11115L327.72015 334.01993Q327.87762 333.26144 327.9259 332.78253Q327.96634 332.29007 327.90482 331.96475Q327.849 331.61807 327.68494 331.33392Q327.474 330.96857 327.1533 330.7568Q326.83255 330.54504 326.4333 330.54102Q326.03976 330.51562 325.62027 330.7578Q325.13315 331.03906 324.92557 331.42953Q324.71017 331.8065 324.7431 332.23853Q324.77603 332.67056 325.02603 333.10358L324.07883 333.65045Q323.71945 333.028 323.6932 332.35754Q323.6805 331.6793 324.02853 331.0634Q324.39014 330.43964 325.17496 329.9865Q325.8786 329.58026 326.5277 329.5483Q327.169 329.5028 327.68393 329.80093Q328.20456 330.0777 328.5483 330.67307Q328.7358 330.99783 328.82288 331.39862Q328.90213 331.7859 328.908 332.23355Q328.90604 332.6677 328.83643 333.14087Q328.77255 333.59274 328.6681 334.06802L327.9211 337.36798L331.62878 335.22736ZM332.0881 326.08542L336.37717 333.5143L335.44348 334.05338L331.8341 327.80173L330.3381 329.5856L329.84592 328.73312L331.9528 326.16354L332.0881 326.08542Z" fill-rule="nonzero"/><path fill="#000000" d="M387.59964 342.2274L388.04495 342.9987L383.21417 345.78775L382.82355 345.11118L383.691 341.01993Q383.8485 340.26144 383.89676 339.78253Q383.9372 339.29007 383.87567 338.96475Q383.81985 338.6181 383.6558 338.33392Q383.44485 337.96857 383.12415 337.75684Q382.8034 337.54507 382.40414 337.54102Q382.01062 337.51566 381.59113 337.75784Q381.104 338.0391 380.89642 338.42957Q380.68103 338.8065 380.714 339.23856Q380.74692 339.6706 380.99692 340.1036L380.04968 340.65048Q379.6903 340.028 379.66406 339.35757Q379.65137 338.6793 379.99942 338.0634Q380.361 337.43967 381.1458 336.98654Q381.84946 336.5803 382.49857 336.5483Q383.13986 336.50284 383.6548 336.80093Q384.1754 337.0777 384.51917 337.6731Q384.70667 337.99783 384.79373 338.39865Q384.873 338.7859 384.87885 339.23355Q384.8769 339.6677 384.8073 340.1409Q384.7434 340.59274 384.63895 341.06802L383.89197 344.368L387.59964 342.2274ZM391.4276 335.32635L392.08386 336.463Q392.6073 337.36963 392.8043 338.08582Q393.00128 338.80203 392.9088 339.3606Q392.82986 339.91138 392.4984 340.33728Q392.18048 340.75537 391.63922 341.06787Q391.21976 341.31006 390.7919 341.41275Q390.36404 341.51544 389.94705 341.44946Q389.52228 341.36996 389.10056 341.10825Q388.6788 340.84656 388.25806 340.3678Q387.8295 339.8755 387.41544 339.15833L386.7592 338.02167Q386.23575 337.11502 386.04657 336.41235Q385.8709 335.70187 385.94986 335.15112Q386.04233 334.59253 386.36807 334.18796Q386.70734 333.7756 387.23508 333.47092Q387.6681 333.22092 388.09595 333.11823Q388.52377 333.01553 388.94077 333.0815Q389.3499 333.13394 389.75812 333.40347Q390.17203 333.65164 390.59277 334.1304Q391.01355 334.60916 391.4276 335.32635ZM391.22256 337.15872L390.39444 335.72437Q390.10538 335.2237 389.83252 334.87607Q389.55963 334.5284 389.2816 334.3281Q389.0171 334.11996 388.74744 334.05914Q388.4913 333.99054 388.22794 334.03433Q387.96454 334.07816 387.6804 334.24222Q387.35562 334.42972 387.1553 334.70773Q386.9685 334.97797 386.94885 335.35016Q386.9292 335.72235 387.0923 336.2236Q387.26108 336.70346 387.62045 337.32593L388.44858 338.76028Q388.73764 339.26096 389.01053 339.60858Q389.29694 339.94843 389.56924 340.17007Q389.8473 340.3704 390.11124 340.45258Q390.3887 340.52692 390.65207 340.4831Q390.91547 340.4393 391.1861 340.28305Q391.53793 340.07993 391.7247 339.8097Q391.9037 339.52594 391.91553 339.14023Q391.9274 338.7545 391.75858 338.2746Q391.58194 337.7812 391.22256 337.15872ZM399.724 335.2274L400.1693 335.9987L395.33853 338.78775L394.9479 338.11118L395.81537 334.01993Q395.97287 333.26144 396.02112 332.78253Q396.06155 332.29007 396.00003 331.96475Q395.9442 331.6181 395.78015 331.33392Q395.5692 330.96857 395.2485 330.75684Q394.92776 330.54507 394.5285 330.54102Q394.13498 330.51566 393.71548 330.75784Q393.22836 331.0391 393.02078 331.42957Q392.8054 331.8065 392.83832 332.23856Q392.87128 332.6706 393.12128 333.1036L392.17404 333.65048Q391.81467 333.028 391.78842 332.35757Q391.77573 331.6793 392.12378 331.0634Q392.48535 330.43967 393.27017 329.98654Q393.97382 329.5803 394.62292 329.5483Q395.26422 329.50284 395.77914 329.80093Q396.29977 330.0777 396.64352 330.6731Q396.83102 330.99783 396.9181 331.39865Q396.99734 331.7859 397.0032 332.23355Q397.00125 332.6677 396.93167 333.1409Q396.86777 333.59274 396.7633 334.06802L396.01633 337.368L399.724 335.2274ZM405.7862 331.7274L406.2315 332.4987L401.4007 335.28775L401.01007 334.61118L401.87756 330.51993Q402.03503 329.76144 402.08328 329.28253Q402.12375 328.79007 402.0622 328.46475Q402.0064 328.1181 401.84235 327.83392Q401.6314 327.46857 401.31067 327.25684Q400.98996 327.04507 400.5907 327.04102Q400.19714 327.01566 399.77768 327.25784Q399.29053 327.5391 399.08295 327.92957Q398.86758 328.3065 398.9005 328.73856Q398.93344 329.1706 399.18344 329.6036L398.23624 330.15048Q397.87686 329.528 397.85062 328.85757Q397.8379 328.1793 398.18594 327.5634Q398.54752 326.93967 399.33237 326.48654Q400.036 326.0803 400.68512 326.0483Q401.32642 326.00284 401.8413 326.30093Q402.36197 326.5777 402.70572 327.1731Q402.89322 327.49783 402.98026 327.89865Q403.0595 328.2859 403.06537 328.73355Q403.06345 329.1677 402.99384 329.6409Q402.92996 330.09274 402.82547 330.56802L402.07852 333.868L405.7862 331.7274Z" fill-rule="nonzero"/><path fill="#000000" d="M455.6949 342.2274L456.1402 342.9987L451.30942 345.78775L450.9188 345.11118L451.78625 341.01993Q451.94376 340.26144 451.992 339.78253Q452.03244 339.29007 451.97092 338.96475Q451.9151 338.6181 451.75104 338.33392Q451.5401 337.96857 451.2194 337.7568Q450.89865 337.54504 450.4994 337.54102Q450.10587 337.51566 449.68637 337.75784Q449.19925 338.0391 448.99167 338.42957Q448.77628 338.8065 448.8092 339.23853Q448.84216 339.6706 449.09216 340.10358L448.14493 340.65045Q447.78555 340.028 447.7593 339.35754Q447.7466 338.6793 448.09467 338.0634Q448.45624 337.43964 449.24106 336.9865Q449.9447 336.58026 450.5938 336.5483Q451.2351 336.5028 451.75003 336.80093Q452.27066 337.0777 452.6144 337.6731Q452.8019 337.99783 452.88898 338.39862Q452.96823 338.7859 452.9741 339.23355Q452.97214 339.6677 452.90256 340.1409Q452.83865 340.59274 452.7342 341.06802L451.9872 344.368L455.6949 342.2274ZM459.52286 335.32632L460.1791 336.46298Q460.70255 337.36963 460.89954 338.08582Q461.09653 338.80203 461.00406 339.3606Q460.9251 339.91138 460.59366 340.33728Q460.27573 340.75537 459.73447 341.06787Q459.31497 341.31006 458.88715 341.41275Q458.4593 341.51544 458.0423 341.44946Q457.61752 341.36993 457.1958 341.10825Q456.77405 340.84656 456.3533 340.3678Q455.92474 339.8755 455.51068 339.1583L454.85443 338.02164Q454.331 337.11502 454.1418 336.41235Q453.96616 335.70187 454.0451 335.15112Q454.13757 334.59253 454.46332 334.18796Q454.80258 333.77557 455.33032 333.4709Q455.76334 333.2209 456.1912 333.11823Q456.61902 333.01553 457.036 333.0815Q457.44516 333.13394 457.85336 333.40347Q458.26727 333.65164 458.68802 334.1304Q459.1088 334.60916 459.52286 335.32632ZM459.3178 337.15872L458.4897 335.72437Q458.20062 335.2237 457.92776 334.87607Q457.65488 334.5284 457.37683 334.3281Q457.11234 334.11996 456.84268 334.05914Q456.58655 333.9905 456.32318 334.03433Q456.05978 334.07816 455.77563 334.24222Q455.45087 334.42972 455.25055 334.70773Q455.06375 334.97797 455.0441 335.35016Q455.02444 335.72235 455.18753 336.22357Q455.35632 336.70346 455.7157 337.32593L456.54382 338.76028Q456.8329 339.26096 457.10577 339.60858Q457.39218 339.94843 457.6645 340.17007Q457.94254 340.3704 458.20648 340.45255Q458.48395 340.52692 458.7473 340.4831Q459.0107 340.4393 459.28134 340.28305Q459.63318 340.07993 459.81995 339.8097Q459.99893 339.52594 460.01077 339.1402Q460.0226 338.7545 459.85382 338.2746Q459.6772 337.7812 459.3178 337.15872ZM467.81924 335.2274L468.26456 335.9987L463.43378 338.78775L463.04315 338.11118L463.9106 334.01993Q464.06808 333.26144 464.11636 332.78253Q464.1568 332.29007 464.09528 331.96475Q464.03946 331.6181 463.8754 331.33392Q463.66446 330.96857 463.34375 330.7568Q463.023 330.54504 462.62375 330.54102Q462.23022 330.51566 461.81073 330.75784Q461.3236 331.0391 461.11603 331.42957Q460.90063 331.8065 460.93356 332.23853Q460.96652 332.6706 461.21652 333.10358L460.2693 333.65045Q459.9099 333.028 459.88367 332.35754Q459.87097 331.6793 460.21902 331.0634Q460.5806 330.43964 461.36542 329.9865Q462.06906 329.58026 462.71817 329.5483Q463.35947 329.5028 463.8744 329.80093Q464.39502 330.0777 464.73877 330.6731Q464.92627 330.99783 465.01334 331.39862Q465.0926 331.7859 465.09845 332.23355Q465.0965 332.6677 465.02692 333.1409Q464.963 333.59274 464.85855 334.06802L464.11157 337.368L467.81924 335.2274ZM468.4642 330.34445L469.12726 329.96164Q469.62793 329.67258 469.8454 329.33054Q470.0686 328.9671 470.06693 328.5892Q470.06525 328.21127 469.8543 327.84592Q469.61212 327.42645 469.2992 327.2282Q468.992 327.00864 468.62192 327.02386Q468.2518 327.0391 467.8188 327.2891Q467.41284 327.52347 467.2089 327.8577Q466.99713 328.17844 466.9853 328.56415Q466.98697 328.94208 467.21353 329.3345L466.26633 329.88138Q465.9382 329.31305 465.95673 328.6889Q465.97528 328.06476 466.33322 327.49725Q466.68335 326.9162 467.37347 326.51776Q468.03653 326.13495 468.67783 326.08948Q469.3113 326.03046 469.8689 326.34Q470.4187 326.63602 470.81714 327.3261Q470.9812 327.6103 471.02557 327.99963Q471.06995 328.38898 470.96338 328.8294Q470.849 329.2563 470.51755 329.6822Q470.19962 330.1003 469.5907 330.45187L468.79233 330.9128L468.4642 330.34445ZM468.90952 331.11578L468.5814 330.54745L469.37976 330.08652Q470.0834 329.68027 470.64505 329.59055Q471.19885 329.4873 471.63358 329.6152Q472.06046 329.72958 472.364 330.00537Q472.65976 330.26764 472.85507 330.60593Q473.15195 331.12015 473.21042 331.62766Q473.26108 332.12164 473.10037 332.5933Q472.9454 333.0436 472.59833 333.44247Q472.26477 333.8335 471.7641 334.12256Q471.27695 334.4038 470.77936 334.51068Q470.27393 334.60403 469.80075 334.53442Q469.32755 334.4648 468.91934 334.1953Q468.51688 333.90445 468.23563 333.41733L469.1693 332.87827Q469.38806 333.25714 469.72232 333.4611Q470.0623 333.64368 470.46725 333.62637Q470.87796 333.58774 471.31097 333.33774Q471.744 333.08774 471.96927 332.7592Q472.19458 332.43066 472.1851 332.0392Q472.1813 331.6264 471.91568 331.16635Q471.65005 330.70627 471.28873 330.51794Q470.9274 330.32962 470.48395 330.40524Q470.04617 330.45953 469.57257 330.73297L468.90952 331.11578Z" fill-rule="nonzero"/><path fill="#000000" d="M523.79016 342.2274L524.2355 342.9987L519.40466 345.78775L519.01404 345.11115L519.88153 341.01993Q520.039 340.26144 520.0872 339.78253Q520.1277 339.29007 520.06616 338.96475Q520.0104 338.6181 519.8463 338.33392Q519.6354 337.96857 519.31464 337.7568Q518.9939 337.54504 518.59467 337.54102Q518.2011 337.51562 517.7816 337.7578Q517.2945 338.03906 517.0869 338.42957Q516.8715 338.8065 516.9045 339.23853Q516.9374 339.67056 517.1874 340.10358L516.2402 340.65045Q515.8808 340.028 515.85455 339.35754Q515.84186 338.6793 516.1899 338.0634Q516.55145 337.43964 517.3363 336.9865Q518.04 336.58026 518.6891 336.5483Q519.3304 336.5028 519.8453 336.80093Q520.3659 337.0777 520.70966 337.67307Q520.89716 337.99783 520.9842 338.39862Q521.0635 338.7859 521.06934 339.23355Q521.0674 339.6677 520.9978 340.1409Q520.9339 340.59274 520.8294 341.06802L520.08246 344.368L523.79016 342.2274ZM527.6181 335.32632L528.27435 336.46298Q528.7978 337.3696 528.99475 338.08582Q529.1918 338.80203 529.0993 339.3606Q529.0203 339.91135 528.6889 340.33728Q528.371 340.75537 527.8297 341.06787Q527.4102 341.31006 526.98236 341.41275Q526.5545 341.5154 526.1376 341.44946Q525.71277 341.36993 525.291 341.10825Q524.8693 340.84656 524.44855 340.36777Q524.01996 339.8755 523.6059 339.1583L522.94965 338.02164Q522.4262 337.11502 522.23706 336.41235Q522.0614 335.70187 522.1403 335.1511Q522.23285 334.59253 522.55853 334.18796Q522.8978 333.77557 523.42554 333.4709Q523.8586 333.2209 524.28644 333.11823Q524.7143 333.01553 525.1312 333.0815Q525.5404 333.13394 525.9486 333.40347Q526.36255 333.6516 526.78326 334.1304Q527.20404 334.60916 527.6181 335.32632ZM527.4131 337.15872L526.58496 335.72437Q526.2959 335.2237 526.023 334.87607Q525.7501 334.5284 525.4721 334.3281Q525.2076 334.11996 524.9379 334.05914Q524.6818 333.9905 524.4184 334.03433Q524.155 334.07812 523.87085 334.2422Q523.5461 334.4297 523.34576 334.70773Q523.159 334.97797 523.13934 335.35016Q523.1197 335.72235 523.2828 336.22357Q523.4516 336.70346 523.811 337.32593L524.6391 338.76028Q524.92816 339.26096 525.201 339.60858Q525.4874 339.9484 525.75977 340.17007Q526.0378 340.3704 526.3017 340.45255Q526.57916 340.52692 526.8426 340.4831Q527.10596 340.43927 527.3766 340.28302Q527.7284 340.0799 527.9152 339.8097Q528.0942 339.52594 528.106 339.1402Q528.11786 338.7545 527.94904 338.2746Q527.77246 337.78116 527.4131 337.15872ZM535.9145 335.2274L536.3598 335.9987L531.529 338.78775L531.13837 338.11115L532.00586 334.01993Q532.1633 333.26144 532.2116 332.78253Q532.2521 332.29007 532.1905 331.96475Q532.1347 331.6181 531.97064 331.33392Q531.7597 330.96857 531.43896 330.7568Q531.1183 330.54504 530.719 330.54102Q530.32544 330.51562 529.906 330.7578Q529.4188 331.03906 529.21124 331.42957Q528.9959 331.8065 529.0288 332.23853Q529.06177 332.67056 529.31177 333.10358L528.36456 333.65045Q528.0052 333.028 527.97894 332.35754Q527.9662 331.6793 528.3143 331.0634Q528.67584 330.43964 529.4607 329.9865Q530.1643 329.58026 530.8134 329.5483Q531.4547 329.5028 531.9696 329.80093Q532.4903 330.0777 532.83405 330.67307Q533.02155 330.99783 533.1086 331.39862Q533.1878 331.7859 533.19366 332.23355Q533.1918 332.6677 533.12213 333.1409Q533.0583 333.59274 532.9538 334.06802L532.20685 337.368L535.9145 335.2274ZM541.13336 329.9229L541.5787 330.6942L536.2472 333.77234L535.9269 333.21756L536.27545 326.19635L537.04675 325.75104L537.0729 327.70255L536.87085 332.38385L541.13336 329.9229ZM537.2768 325.61823L541.5424 333.0065L540.60876 333.54556L536.34314 326.1573L537.2768 325.61823Z" fill-rule="nonzero"/><path fill="#0a0a0a" d="M71.109375 24.53125L73.59375 24.53125L77.234375 34.96875L80.890625 24.53125L83.375 24.53125L78.234375 38.75L76.25 38.75L71.109375 24.53125ZM69.765625 24.53125L72.234375 24.53125L72.6875 34.703125L72.6875 38.75L69.765625 38.75L69.765625 24.53125ZM82.234375 24.53125L84.71875 24.53125L84.71875 38.75L81.796875 38.75L81.796875 34.703125L82.234375 24.53125ZM87.140625 33.578125L87.140625 33.375Q87.140625 32.203125 87.46875 31.234375Q87.8125 30.25 88.4375 29.53125Q89.078125 28.796875 90.0 28.390625Q90.9375 27.984375 92.140625 27.984375Q93.34375 27.984375 94.28125 28.390625Q95.21875 28.796875 95.84375 29.53125Q96.484375 30.25 96.8125 31.234375Q97.15625 32.203125 97.15625 33.375L97.15625 33.578125Q97.15625 34.71875 96.8125 35.703125Q96.484375 36.6875 95.84375 37.421875Q95.21875 38.140625 94.28125 38.546875Q93.359375 38.953125 92.15625 38.953125Q90.953125 38.953125 90.015625 38.546875Q89.09375 38.140625 88.453125 37.421875Q87.8125 36.6875 87.46875 35.703125Q87.140625 34.71875 87.140625 33.578125ZM89.953125 33.375L89.953125 33.578125Q89.953125 34.234375 90.0625 34.8125Q90.1875 35.390625 90.4375 35.828125Q90.703125 36.265625 91.125 36.515625Q91.546875 36.75 92.15625 36.75Q92.734375 36.75 93.15625 36.515625Q93.578125 36.265625 93.828125 35.828125Q94.09375 35.390625 94.203125 34.8125Q94.328125 34.234375 94.328125 33.578125L94.328125 33.375Q94.328125 32.71875 94.203125 32.15625Q94.09375 31.578125 93.828125 31.140625Q93.578125 30.6875 93.15625 30.4375Q92.734375 30.1875 92.140625 30.1875Q91.546875 30.1875 91.125 30.4375Q90.703125 30.6875 90.4375 31.140625Q90.1875 31.578125 90.0625 32.15625Q89.953125 32.71875 89.953125 33.375ZM101.34375 30.4375L101.34375 38.75L98.53125 38.75L98.53125 28.1875L101.171875 28.1875L101.34375 30.4375ZM100.9375 33.09375L100.171875 33.09375Q100.171875 31.921875 100.46875 30.984375Q100.78125 30.03125 101.328125 29.375Q101.875 28.703125 102.625 28.34375Q103.390625 27.984375 104.328125 27.984375Q105.0625 27.984375 105.671875 28.203125Q106.296875 28.421875 106.734375 28.890625Q107.1875 29.359375 107.421875 30.125Q107.671875 30.890625 107.671875 32.015625L107.671875 38.75L104.828125 38.75L104.828125 32.0Q104.828125 31.296875 104.625 30.90625Q104.4375 30.515625 104.0625 30.359375Q103.6875 30.1875 103.140625 30.1875Q102.578125 30.1875 102.15625 30.421875Q101.75 30.640625 101.484375 31.046875Q101.21875 31.4375 101.078125 31.96875Q100.9375 32.484375 100.9375 33.09375ZM114.765625 28.1875L114.765625 30.171875L108.625 30.171875L108.625 28.1875L114.765625 28.1875ZM110.140625 25.578125L112.953125 25.578125L112.953125 35.5625Q112.953125 36.03125 113.078125 36.28125Q113.203125 36.515625 113.4375 36.609375Q113.6875 36.703125 114.0625 36.703125Q114.328125 36.703125 114.53125 36.6875Q114.734375 36.65625 114.890625 36.625L114.890625 38.6875Q114.53125 38.8125 114.109375 38.875Q113.703125 38.953125 113.1875 38.953125Q112.265625 38.953125 111.578125 38.640625Q110.890625 38.328125 110.515625 37.65625Q110.140625 36.96875 110.140625 35.84375L110.140625 25.578125ZM119.34375 23.75L119.34375 38.75L116.53125 38.75L116.53125 23.75L119.34375 23.75ZM118.9375 33.09375L118.171875 33.09375Q118.171875 31.984375 118.453125 31.0625Q118.75 30.125 119.265625 29.4375Q119.796875 28.75 120.53125 28.375Q121.265625 27.984375 122.171875 27.984375Q122.953125 27.984375 123.59375 28.203125Q124.234375 28.421875 124.6875 28.90625Q125.15625 29.390625 125.40625 30.171875Q125.671875 30.953125 125.671875 32.0625L125.671875 38.75L122.828125 38.75L122.828125 32.046875Q122.828125 31.34375 122.625 30.9375Q122.4375 30.53125 122.0625 30.359375Q121.6875 30.1875 121.140625 30.1875Q120.53125 30.1875 120.109375 30.421875Q119.6875 30.640625 119.421875 31.046875Q119.171875 31.4375 119.046875 31.96875Q118.9375 32.484375 118.9375 33.09375ZM130.5625 23.75L130.5625 38.75L127.734375 38.75L127.734375 23.75L130.5625 23.75ZM135.73438 37.5625L138.53125 28.1875L141.54688 28.1875L137.29688 40.34375Q137.17188 40.75 136.9375 41.203125Q136.70312 41.65625 136.3125 42.0625Q135.9375 42.484375 135.34375 42.75Q134.76562 43.015625 133.9375 43.015625Q133.53125 43.015625 133.28125 42.96875Q133.03125 42.921875 132.67188 42.828125L132.67188 40.765625Q132.78125 40.765625 132.89062 40.765625Q133.01562 40.78125 133.125 40.78125Q133.67188 40.78125 134.01562 40.65625Q134.375 40.53125 134.59375 40.265625Q134.8125 40.015625 134.9375 39.59375L135.73438 37.5625ZM134.5625 28.1875L136.85938 35.84375L137.25 38.8125L135.34375 39.03125L131.54688 28.1875L134.5625 28.1875ZM147.76562 24.53125L153.07812 24.53125Q154.70312 24.53125 155.875 25.015625Q157.0625 25.5 157.6875 26.46875Q158.32812 27.421875 158.32812 28.8125Q158.32812 29.953125 157.9375 30.78125Q157.5625 31.59375 156.85938 32.140625Q156.15625 32.671875 155.21875 33.0L154.29688 33.484375L149.6875 33.484375L149.67188 31.203125L153.09375 31.203125Q153.85938 31.203125 154.35938 30.9375Q154.875 30.65625 155.125 30.171875Q155.39062 29.671875 155.39062 29.03125Q155.39062 28.34375 155.14062 27.859375Q154.89062 27.359375 154.375 27.09375Q153.85938 26.828125 153.07812 26.828125L150.70312 26.828125L150.70312 38.75L147.76562 38.75L147.76562 24.53125ZM155.71875 38.75L152.48438 32.40625L155.57812 32.390625L158.85938 38.609375L158.85938 38.75L155.71875 38.75ZM165.45312 38.953125Q164.23438 38.953125 163.25 38.5625Q162.28125 38.15625 161.59375 37.453125Q160.92188 36.75 160.54688 35.8125Q160.1875 34.875 160.1875 33.828125L160.1875 33.4375Q160.1875 32.234375 160.53125 31.25Q160.875 30.25 161.51562 29.515625Q162.15625 28.78125 163.07812 28.390625Q164.0 27.984375 165.14062 27.984375Q166.26562 27.984375 167.125 28.359375Q168.0 28.734375 168.59375 29.421875Q169.1875 30.09375 169.48438 31.046875Q169.79688 32.0 169.79688 33.15625L169.79688 34.328125L161.39062 34.328125L161.39062 32.453125L167.03125 32.453125L167.03125 32.25Q167.03125 31.65625 166.8125 31.203125Q166.60938 30.734375 166.1875 30.46875Q165.76562 30.1875 165.10938 30.1875Q164.5625 30.1875 164.15625 30.4375Q163.76562 30.671875 163.51562 31.109375Q163.26562 31.546875 163.14062 32.140625Q163.01562 32.734375 163.01562 33.4375L163.01562 33.828125Q163.01562 34.46875 163.1875 35.0Q163.375 35.53125 163.70312 35.921875Q164.04688 36.3125 164.53125 36.53125Q165.01562 36.75 165.64062 36.75Q166.39062 36.75 167.04688 36.453125Q167.71875 36.15625 168.1875 35.546875L169.5625 37.03125Q169.23438 37.515625 168.65625 37.953125Q168.07812 38.390625 167.28125 38.671875Q166.48438 38.953125 165.45312 38.953125ZM178.28125 28.1875L180.82812 28.1875L180.82812 38.390625Q180.82812 39.84375 180.1875 40.84375Q179.54688 41.859375 178.40625 42.375Q177.26562 42.90625 175.75 42.90625Q175.09375 42.90625 174.34375 42.734375Q173.60938 42.5625 172.9375 42.1875Q172.28125 41.8125 171.82812 41.25L173.0625 39.59375Q173.5625 40.15625 174.20312 40.46875Q174.84375 40.796875 175.625 40.796875Q176.39062 40.796875 176.90625 40.515625Q177.4375 40.234375 177.71875 39.703125Q178.01562 39.171875 178.01562 38.421875L178.01562 30.625L178.28125 28.1875ZM171.17188 33.59375L171.17188 33.390625Q171.17188 32.171875 171.46875 31.1875Q171.76562 30.1875 172.3125 29.484375Q172.875 28.765625 173.65625 28.375Q174.45312 27.984375 175.45312 27.984375Q176.5 27.984375 177.21875 28.375Q177.9375 28.765625 178.39062 29.484375Q178.84375 30.203125 179.10938 31.171875Q179.375 32.140625 179.51562 33.296875L179.51562 33.75Q179.375 34.859375 179.07812 35.8125Q178.78125 36.75 178.29688 37.453125Q177.82812 38.15625 177.10938 38.5625Q176.40625 38.953125 175.4375 38.953125Q174.45312 38.953125 173.67188 38.546875Q172.89062 38.140625 172.32812 37.421875Q171.76562 36.703125 171.46875 35.734375Q171.17188 34.75 171.17188 33.59375ZM173.98438 33.390625L173.98438 33.59375Q173.98438 34.25 174.10938 34.8125Q174.23438 35.375 174.5 35.8125Q174.78125 36.25 175.1875 36.5Q175.59375 36.734375 176.14062 36.734375Q176.92188 36.734375 177.40625 36.40625Q177.89062 36.078125 178.125 35.5Q178.375 34.921875 178.42188 34.171875L178.42188 32.890625Q178.40625 32.28125 178.25 31.78125Q178.10938 31.28125 177.84375 30.9375Q177.57812 30.578125 177.15625 30.390625Q176.73438 30.1875 176.17188 30.1875Q175.60938 30.1875 175.20312 30.4375Q174.79688 30.6875 174.53125 31.125Q174.26562 31.546875 174.125 32.140625Q173.98438 32.71875 173.98438 33.390625ZM185.5625 28.1875L185.5625 38.75L182.73438 38.75L182.73438 28.1875L185.5625 28.1875ZM182.5625 25.421875Q182.5625 24.8125 182.98438 24.421875Q183.42188 24.015625 184.14062 24.015625Q184.85938 24.015625 185.29688 24.421875Q185.73438 24.8125 185.73438 25.421875Q185.73438 26.046875 185.29688 26.453125Q184.85938 26.84375 184.14062 26.84375Q183.42188 26.84375 182.98438 26.453125Q182.5625 26.046875 182.5625 25.421875ZM187.14062 33.578125L187.14062 33.375Q187.14062 32.203125 187.46875 31.234375Q187.8125 30.25 188.4375 29.53125Q189.07812 28.796875 190.0 28.390625Q190.9375 27.984375 192.14062 27.984375Q193.34375 27.984375 194.28125 28.390625Q195.21875 28.796875 195.84375 29.53125Q196.48438 30.25 196.8125 31.234375Q197.15625 32.203125 197.15625 33.375L197.15625 33.578125Q197.15625 34.71875 196.8125 35.703125Q196.48438 36.6875 195.84375 37.421875Q195.21875 38.140625 194.28125 38.546875Q193.35938 38.953125 192.15625 38.953125Q190.95312 38.953125 190.01562 38.546875Q189.09375 38.140625 188.45312 37.421875Q187.8125 36.6875 187.46875 35.703125Q187.14062 34.71875 187.14062 33.578125ZM189.95312 33.375L189.95312 33.578125Q189.95312 34.234375 190.0625 34.8125Q190.1875 35.390625 190.4375 35.828125Q190.70312 36.265625 191.125 36.515625Q191.54688 36.75 192.15625 36.75Q192.73438 36.75 193.15625 36.515625Q193.57812 36.265625 193.82812 35.828125Q194.09375 35.390625 194.20312 34.8125Q194.32812 34.234375 194.32812 33.578125L194.32812 33.375Q194.32812 32.71875 194.20312 32.15625Q194.09375 31.578125 193.82812 31.140625Q193.57812 30.6875 193.15625 30.4375Q192.73438 30.1875 192.14062 30.1875Q191.54688 30.1875 191.125 30.4375Q190.70312 30.6875 190.4375 31.140625Q190.1875 31.578125 190.0625 32.15625Q189.95312 32.71875 189.95312 33.375ZM201.34375 30.4375L201.34375 38.75L198.53125 38.75L198.53125 28.1875L201.17188 28.1875L201.34375 30.4375ZM200.9375 33.09375L200.17188 33.09375Q200.17188 31.921875 200.46875 30.984375Q200.78125 30.03125 201.32812 29.375Q201.875 28.703125 202.625 28.34375Q203.39062 27.984375 204.32812 27.984375Q205.0625 27.984375 205.67188 28.203125Q206.29688 28.421875 206.73438 28.890625Q207.1875 29.359375 207.42188 30.125Q207.67188 30.890625 207.67188 32.015625L207.67188 38.75L204.82812 38.75L204.82812 32.0Q204.82812 31.296875 204.625 30.90625Q204.4375 30.515625 204.0625 30.359375Q203.6875 30.1875 203.14062 30.1875Q202.57812 30.1875 202.15625 30.421875Q201.75 30.640625 201.48438 31.046875Q201.21875 31.4375 201.07812 31.96875Q200.9375 32.484375 200.9375 33.09375ZM215.29688 36.359375L215.29688 31.65625Q215.29688 31.15625 215.125 30.796875Q214.96875 30.421875 214.60938 30.21875Q214.26562 30.015625 213.71875 30.015625Q213.25 30.015625 212.90625 30.171875Q212.57812 30.328125 212.39062 30.625Q212.20312 30.921875 212.20312 31.328125L209.39062 31.328125Q209.39062 30.65625 209.70312 30.046875Q210.01562 29.4375 210.60938 28.984375Q211.20312 28.515625 212.03125 28.25Q212.85938 27.984375 213.875 27.984375Q215.10938 27.984375 216.0625 28.40625Q217.03125 28.8125 217.57812 29.640625Q218.125 30.453125 218.125 31.671875L218.125 36.203125Q218.125 37.0625 218.23438 37.625Q218.34375 38.171875 218.54688 38.578125L218.54688 38.75L215.70312 38.75Q215.5 38.3125 215.39062 37.671875Q215.29688 37.015625 215.29688 36.359375ZM215.67188 32.3125L215.6875 33.90625L214.10938 33.90625Q213.5625 33.90625 213.14062 34.03125Q212.73438 34.15625 212.46875 34.390625Q212.21875 34.625 212.09375 34.921875Q211.96875 35.21875 211.96875 35.578125Q211.96875 35.953125 212.125 36.234375Q212.29688 36.515625 212.60938 36.6875Q212.92188 36.84375 213.34375 36.84375Q213.98438 36.84375 214.45312 36.59375Q214.92188 36.34375 215.17188 35.96875Q215.4375 35.59375 215.4375 35.265625L216.1875 36.453125Q216.03125 36.859375 215.76562 37.296875Q215.5 37.71875 215.07812 38.09375Q214.67188 38.46875 214.09375 38.71875Q213.51562 38.953125 212.73438 38.953125Q211.71875 38.953125 210.90625 38.546875Q210.09375 38.140625 209.60938 37.421875Q209.14062 36.703125 209.14062 35.78125Q209.14062 34.953125 209.45312 34.3125Q209.76562 33.65625 210.375 33.21875Q210.98438 32.765625 211.90625 32.546875Q212.82812 32.3125 214.03125 32.3125L215.67188 32.3125ZM223.5625 23.75L223.5625 38.75L220.73438 38.75L220.73438 23.75L223.5625 23.75ZM236.3125 33.6875L232.6875 33.6875L232.6875 31.390625L236.3125 31.390625Q237.14062 31.390625 237.67188 31.125Q238.20312 30.84375 238.4375 30.34375Q238.6875 29.84375 238.6875 29.21875Q238.6875 28.578125 238.4375 28.03125Q238.20312 27.484375 237.67188 27.15625Q237.14062 26.828125 236.3125 26.828125L233.70312 26.828125L233.70312 38.75L230.76562 38.75L230.76562 24.53125L236.3125 24.53125Q237.98438 24.53125 239.17188 25.140625Q240.375 25.734375 241.0 26.796875Q241.64062 27.84375 241.64062 29.203125Q241.64062 30.578125 241.0 31.59375Q240.375 32.59375 239.17188 33.140625Q237.98438 33.6875 236.3125 33.6875ZM249.29688 36.359375L249.29688 31.65625Q249.29688 31.15625 249.125 30.796875Q248.96875 30.421875 248.60938 30.21875Q248.26562 30.015625 247.71875 30.015625Q247.25 30.015625 246.90625 30.171875Q246.57812 30.328125 246.39062 30.625Q246.20312 30.921875 246.20312 31.328125L243.39062 31.328125Q243.39062 30.65625 243.70312 30.046875Q244.01562 29.4375 244.60938 28.984375Q245.20312 28.515625 246.03125 28.25Q246.85938 27.984375 247.875 27.984375Q249.10938 27.984375 250.0625 28.40625Q251.03125 28.8125 251.57812 29.640625Q252.125 30.453125 252.125 31.671875L252.125 36.203125Q252.125 37.0625 252.23438 37.625Q252.34375 38.171875 252.54688 38.578125L252.54688 38.75L249.70312 38.75Q249.5 38.3125 249.39062 37.671875Q249.29688 37.015625 249.29688 36.359375ZM249.67188 32.3125L249.6875 33.90625L248.10938 33.90625Q247.5625 33.90625 247.14062 34.03125Q246.73438 34.15625 246.46875 34.390625Q246.21875 34.625 246.09375 34.921875Q245.96875 35.21875 245.96875 35.578125Q245.96875 35.953125 246.125 36.234375Q246.29688 36.515625 246.60938 36.6875Q246.92188 36.84375 247.34375 36.84375Q247.98438 36.84375 248.45312 36.59375Q248.92188 36.34375 249.17188 35.96875Q249.4375 35.59375 249.4375 35.265625L250.1875 36.453125Q250.03125 36.859375 249.76562 37.296875Q249.5 37.71875 249.07812 38.09375Q248.67188 38.46875 248.09375 38.71875Q247.51562 38.953125 246.73438 38.953125Q245.71875 38.953125 244.90625 38.546875Q244.09375 38.140625 243.60938 37.421875Q243.14062 36.703125 243.14062 35.78125Q243.14062 34.953125 243.45312 34.3125Q243.76562 33.65625 244.375 33.21875Q244.98438 32.765625 245.90625 32.546875Q246.82812 32.3125 248.03125 32.3125L249.67188 32.3125ZM259.76562 28.1875L259.76562 30.171875L253.625 30.171875L253.625 28.1875L259.76562 28.1875ZM255.14062 25.578125L257.95312 25.578125L257.95312 35.5625Q257.95312 36.03125 258.07812 36.28125Q258.20312 36.515625 258.4375 36.609375Q258.6875 36.703125 259.0625 36.703125Q259.32812 36.703125 259.53125 36.6875Q259.73438 36.65625 259.89062 36.625L259.89062 38.6875Q259.53125 38.8125 259.10938 38.875Q258.70312 38.953125 258.1875 38.953125Q257.26562 38.953125 256.57812 38.640625Q255.89062 38.328125 255.51562 37.65625Q255.14062 36.96875 255.14062 35.84375L255.14062 25.578125ZM264.40625 30.484375L264.40625 38.75L261.59375 38.75L261.59375 28.1875L264.23438 28.1875L264.40625 30.484375ZM267.59375 28.109375L267.54688 30.71875Q267.34375 30.6875 267.04688 30.671875Q266.76562 30.640625 266.53125 30.640625Q265.9375 30.640625 265.5 30.796875Q265.0625 30.953125 264.76562 31.25Q264.48438 31.53125 264.34375 31.953125Q264.20312 32.375 264.1875 32.90625L263.60938 32.734375Q263.60938 31.703125 263.8125 30.84375Q264.03125 29.984375 264.42188 29.34375Q264.8125 28.6875 265.39062 28.34375Q265.96875 27.984375 266.71875 27.984375Q266.95312 27.984375 267.1875 28.03125Q267.4375 28.0625 267.59375 28.109375ZM268.14062 33.578125L268.14062 33.375Q268.14062 32.203125 268.46875 31.234375Q268.8125 30.25 269.4375 29.53125Q270.07812 28.796875 271.0 28.390625Q271.9375 27.984375 273.14062 27.984375Q274.34375 27.984375 275.28125 28.390625Q276.21875 28.796875 276.84375 29.53125Q277.48438 30.25 277.8125 31.234375Q278.15625 32.203125 278.15625 33.375L278.15625 33.578125Q278.15625 34.71875 277.8125 35.703125Q277.48438 36.6875 276.84375 37.421875Q276.21875 38.140625 275.28125 38.546875Q274.35938 38.953125 273.15625 38.953125Q271.95312 38.953125 271.01562 38.546875Q270.09375 38.140625 269.45312 37.421875Q268.8125 36.6875 268.46875 35.703125Q268.14062 34.71875 268.14062 33.578125ZM270.95312 33.375L270.95312 33.578125Q270.95312 34.234375 271.0625 34.8125Q271.1875 35.390625 271.4375 35.828125Q271.70312 36.265625 272.125 36.515625Q272.54688 36.75 273.15625 36.75Q273.73438 36.75 274.15625 36.515625Q274.57812 36.265625 274.82812 35.828125Q275.09375 35.390625 275.20312 34.8125Q275.32812 34.234375 275.32812 33.578125L275.32812 33.375Q275.32812 32.71875 275.20312 32.15625Q275.09375 31.578125 274.82812 31.140625Q274.57812 30.6875 274.15625 30.4375Q273.73438 30.1875 273.14062 30.1875Q272.54688 30.1875 272.125 30.4375Q271.70312 30.6875 271.4375 31.140625Q271.1875 31.578125 271.0625 32.15625Q270.95312 32.71875 270.95312 33.375ZM282.34375 30.4375L282.34375 38.75L279.53125 38.75L279.53125 28.1875L282.17188 28.1875L282.34375 30.4375ZM281.9375 33.09375L281.17188 33.09375Q281.17188 31.921875 281.46875 30.984375Q281.78125 30.03125 282.32812 29.375Q282.875 28.703125 283.625 28.34375Q284.39062 27.984375 285.32812 27.984375Q286.0625 27.984375 286.67188 28.203125Q287.29688 28.421875 287.73438 28.890625Q288.1875 29.359375 288.42188 30.125Q288.67188 30.890625 288.67188 32.015625L288.67188 38.75L285.82812 38.75L285.82812 32.0Q285.82812 31.296875 285.625 30.90625Q285.4375 30.515625 285.0625 30.359375Q284.6875 30.1875 284.14062 30.1875Q283.57812 30.1875 283.15625 30.421875Q282.75 30.640625 282.48438 31.046875Q282.21875 31.4375 282.07812 31.96875Q281.9375 32.484375 281.9375 33.09375ZM296.29688 36.359375L296.29688 31.65625Q296.29688 31.15625 296.125 30.796875Q295.96875 30.421875 295.60938 30.21875Q295.26562 30.015625 294.71875 30.015625Q294.25 30.015625 293.90625 30.171875Q293.57812 30.328125 293.39062 30.625Q293.20312 30.921875 293.20312 31.328125L290.39062 31.328125Q290.39062 30.65625 290.70312 30.046875Q291.01562 29.4375 291.60938 28.984375Q292.20312 28.515625 293.03125 28.25Q293.85938 27.984375 294.875 27.984375Q296.10938 27.984375 297.0625 28.40625Q298.03125 28.8125 298.57812 29.640625Q299.125 30.453125 299.125 31.671875L299.125 36.203125Q299.125 37.0625 299.23438 37.625Q299.34375 38.171875 299.54688 38.578125L299.54688 38.75L296.70312 38.75Q296.5 38.3125 296.39062 37.671875Q296.29688 37.015625 296.29688 36.359375ZM296.67188 32.3125L296.6875 33.90625L295.10938 33.90625Q294.5625 33.90625 294.14062 34.03125Q293.73438 34.15625 293.46875 34.390625Q293.21875 34.625 293.09375 34.921875Q292.96875 35.21875 292.96875 35.578125Q292.96875 35.953125 293.125 36.234375Q293.29688 36.515625 293.60938 36.6875Q293.92188 36.84375 294.34375 36.84375Q294.98438 36.84375 295.45312 36.59375Q295.92188 36.34375 296.17188 35.96875Q296.4375 35.59375 296.4375 35.265625L297.1875 36.453125Q297.03125 36.859375 296.76562 37.296875Q296.5 37.71875 296.07812 38.09375Q295.67188 38.46875 295.09375 38.71875Q294.51562 38.953125 293.73438 38.953125Q292.71875 38.953125 291.90625 38.546875Q291.09375 38.140625 290.60938 37.421875Q290.14062 36.703125 290.14062 35.78125Q290.14062 34.953125 290.45312 34.3125Q290.76562 33.65625 291.375 33.21875Q291.98438 32.765625 292.90625 32.546875Q293.82812 32.3125 295.03125 32.3125L296.67188 32.3125ZM308.28125 28.1875L310.82812 28.1875L310.82812 38.390625Q310.82812 39.84375 310.1875 40.84375Q309.54688 41.859375 308.40625 42.375Q307.26562 42.90625 305.75 42.90625Q305.09375 42.90625 304.34375 42.734375Q303.60938 42.5625 302.9375 42.1875Q302.28125 41.8125 301.82812 41.25L303.0625 39.59375Q303.5625 40.15625 304.20312 40.46875Q304.84375 40.796875 305.625 40.796875Q306.39062 40.796875 306.90625 40.515625Q307.4375 40.234375 307.71875 39.703125Q308.01562 39.171875 308.01562 38.421875L308.01562 30.625L308.28125 28.1875ZM301.17188 33.59375L301.17188 33.390625Q301.17188 32.171875 301.46875 31.1875Q301.76562 30.1875 302.3125 29.484375Q302.875 28.765625 303.65625 28.375Q304.45312 27.984375 305.45312 27.984375Q306.5 27.984375 307.21875 28.375Q307.9375 28.765625 308.39062 29.484375Q308.84375 30.203125 309.10938 31.171875Q309.375 32.140625 309.51562 33.296875L309.51562 33.75Q309.375 34.859375 309.07812 35.8125Q308.78125 36.75 308.29688 37.453125Q307.82812 38.15625 307.10938 38.5625Q306.40625 38.953125 305.4375 38.953125Q304.45312 38.953125 303.67188 38.546875Q302.89062 38.140625 302.32812 37.421875Q301.76562 36.703125 301.46875 35.734375Q301.17188 34.75 301.17188 33.59375ZM303.98438 33.390625L303.98438 33.59375Q303.98438 34.25 304.10938 34.8125Q304.23438 35.375 304.5 35.8125Q304.78125 36.25 305.1875 36.5Q305.59375 36.734375 306.14062 36.734375Q306.92188 36.734375 307.40625 36.40625Q307.89062 36.078125 308.125 35.5Q308.375 34.921875 308.42188 34.171875L308.42188 32.890625Q308.40625 32.28125 308.25 31.78125Q308.10938 31.28125 307.84375 30.9375Q307.57812 30.578125 307.15625 30.390625Q306.73438 30.1875 306.17188 30.1875Q305.60938 30.1875 305.20312 30.4375Q304.79688 30.6875 304.53125 31.125Q304.26562 31.546875 304.125 32.140625Q303.98438 32.71875 303.98438 33.390625ZM317.45312 38.953125Q316.23438 38.953125 315.25 38.5625Q314.28125 38.15625 313.59375 37.453125Q312.92188 36.75 312.54688 35.8125Q312.1875 34.875 312.1875 33.828125L312.1875 33.4375Q312.1875 32.234375 312.53125 31.25Q312.875 30.25 313.51562 29.515625Q314.15625 28.78125 315.07812 28.390625Q316.0 27.984375 317.14062 27.984375Q318.26562 27.984375 319.125 28.359375Q320.0 28.734375 320.59375 29.421875Q321.1875 30.09375 321.48438 31.046875Q321.79688 32.0 321.79688 33.15625L321.79688 34.328125L313.39062 34.328125L313.39062 32.453125L319.03125 32.453125L319.03125 32.25Q319.03125 31.65625 318.8125 31.203125Q318.60938 30.734375 318.1875 30.46875Q317.76562 30.1875 317.10938 30.1875Q316.5625 30.1875 316.15625 30.4375Q315.76562 30.671875 315.51562 31.109375Q315.26562 31.546875 315.14062 32.140625Q315.01562 32.734375 315.01562 33.4375L315.01562 33.828125Q315.01562 34.46875 315.1875 35.0Q315.375 35.53125 315.70312 35.921875Q316.04688 36.3125 316.53125 36.53125Q317.01562 36.75 317.64062 36.75Q318.39062 36.75 319.04688 36.453125Q319.71875 36.15625 320.1875 35.546875L321.5625 37.03125Q321.23438 37.515625 320.65625 37.953125Q320.07812 38.390625 319.28125 38.671875Q318.48438 38.953125 317.45312 38.953125ZM333.14062 38.75L330.04688 38.75L330.0625 36.46875L333.14062 36.46875Q334.28125 36.46875 335.07812 35.953125Q335.875 35.421875 336.28125 34.421875Q336.6875 33.40625 336.6875 31.984375L336.6875 31.28125Q336.6875 30.1875 336.45312 29.359375Q336.21875 28.53125 335.76562 27.96875Q335.32812 27.40625 334.67188 27.125Q334.01562 26.828125 333.17188 26.828125L329.98438 26.828125L329.98438 24.53125L333.17188 24.53125Q334.59375 24.53125 335.78125 25.015625Q336.96875 25.5 337.82812 26.40625Q338.70312 27.296875 339.17188 28.546875Q339.65625 29.78125 339.65625 31.3125L339.65625 31.984375Q339.65625 33.5 339.17188 34.75Q338.70312 36.0 337.82812 36.890625Q336.96875 37.78125 335.76562 38.265625Q334.57812 38.75 333.14062 38.75ZM331.70312 24.53125L331.70312 38.75L328.76562 38.75L328.76562 24.53125L331.70312 24.53125ZM344.5625 28.1875L344.5625 38.75L341.73438 38.75L341.73438 28.1875L344.5625 28.1875ZM341.5625 25.421875Q341.5625 24.8125 341.98438 24.421875Q342.42188 24.015625 343.14062 24.015625Q343.85938 24.015625 344.29688 24.421875Q344.73438 24.8125 344.73438 25.421875Q344.73438 26.046875 344.29688 26.453125Q343.85938 26.84375 343.14062 26.84375Q342.42188 26.84375 341.98438 26.453125Q341.5625 26.046875 341.5625 25.421875ZM352.3125 35.828125Q352.3125 35.53125 352.125 35.28125Q351.95312 35.03125 351.48438 34.828125Q351.01562 34.625 350.125 34.4375Q349.3125 34.265625 348.625 34.0Q347.9375 33.734375 347.4375 33.359375Q346.9375 32.96875 346.65625 32.453125Q346.375 31.921875 346.375 31.25Q346.375 30.578125 346.65625 30.0Q346.95312 29.40625 347.48438 28.953125Q348.03125 28.5 348.8125 28.25Q349.60938 27.984375 350.59375 27.984375Q351.96875 27.984375 352.95312 28.421875Q353.95312 28.859375 354.48438 29.640625Q355.01562 30.40625 355.01562 31.375L352.20312 31.375Q352.20312 30.96875 352.03125 30.640625Q351.85938 30.3125 351.5 30.125Q351.14062 29.9375 350.57812 29.9375Q350.10938 29.9375 349.76562 30.09375Q349.42188 30.25 349.23438 30.53125Q349.0625 30.796875 349.0625 31.109375Q349.0625 31.359375 349.15625 31.546875Q349.26562 31.734375 349.5 31.890625Q349.73438 32.046875 350.10938 32.1875Q350.48438 32.3125 351.04688 32.421875Q352.1875 32.65625 353.07812 33.03125Q353.98438 33.40625 354.51562 34.046875Q355.04688 34.6875 355.04688 35.71875Q355.04688 36.421875 354.73438 37.015625Q354.42188 37.59375 353.82812 38.03125Q353.25 38.46875 352.42188 38.71875Q351.60938 38.953125 350.59375 38.953125Q349.125 38.953125 348.09375 38.421875Q347.07812 37.890625 346.54688 37.078125Q346.03125 36.265625 346.03125 35.40625L348.70312 35.40625Q348.71875 35.96875 349.0 36.328125Q349.28125 36.671875 349.71875 36.828125Q350.15625 36.984375 350.65625 36.984375Q351.20312 36.984375 351.5625 36.84375Q351.92188 36.6875 352.10938 36.4375Q352.3125 36.171875 352.3125 35.828125ZM361.76562 28.1875L361.76562 30.171875L355.625 30.171875L355.625 28.1875L361.76562 28.1875ZM357.14062 25.578125L359.95312 25.578125L359.95312 35.5625Q359.95312 36.03125 360.07812 36.28125Q360.20312 36.515625 360.4375 36.609375Q360.6875 36.703125 361.0625 36.703125Q361.32812 36.703125 361.53125 36.6875Q361.73438 36.65625 361.89062 36.625L361.89062 38.6875Q361.53125 38.8125 361.10938 38.875Q360.70312 38.953125 360.1875 38.953125Q359.26562 38.953125 358.57812 38.640625Q357.89062 38.328125 357.51562 37.65625Q357.14062 36.96875 357.14062 35.84375L357.14062 25.578125ZM366.40625 30.484375L366.40625 38.75L363.59375 38.75L363.59375 28.1875L366.23438 28.1875L366.40625 30.484375ZM369.59375 28.109375L369.54688 30.71875Q369.34375 30.6875 369.04688 30.671875Q368.76562 30.640625 368.53125 30.640625Q367.9375 30.640625 367.5 30.796875Q367.0625 30.953125 366.76562 31.25Q366.48438 31.53125 366.34375 31.953125Q366.20312 32.375 366.1875 32.90625L365.60938 32.734375Q365.60938 31.703125 365.8125 30.84375Q366.03125 29.984375 366.42188 29.34375Q366.8125 28.6875 367.39062 28.34375Q367.96875 27.984375 368.71875 27.984375Q368.95312 27.984375 369.1875 28.03125Q369.4375 28.0625 369.59375 28.109375ZM373.5625 28.1875L373.5625 38.75L370.73438 38.75L370.73438 28.1875L373.5625 28.1875ZM370.5625 25.421875Q370.5625 24.8125 370.98438 24.421875Q371.42188 24.015625 372.14062 24.015625Q372.85938 24.015625 373.29688 24.421875Q373.73438 24.8125 373.73438 25.421875Q373.73438 26.046875 373.29688 26.453125Q372.85938 26.84375 372.14062 26.84375Q371.42188 26.84375 370.98438 26.453125Q370.5625 26.046875 370.5625 25.421875ZM375.59375 23.75L378.40625 23.75L378.40625 36.328125L378.125 38.75L375.59375 38.75L375.59375 23.75ZM385.09375 33.359375L385.09375 33.5625Q385.09375 34.75 384.84375 35.734375Q384.59375 36.71875 384.07812 37.4375Q383.5625 38.15625 382.79688 38.5625Q382.03125 38.953125 381.0 38.953125Q380.03125 38.953125 379.3125 38.5625Q378.60938 38.15625 378.125 37.453125Q377.65625 36.734375 377.35938 35.78125Q377.0625 34.828125 376.92188 33.6875L376.92188 33.234375Q377.0625 32.109375 377.35938 31.15625Q377.65625 30.1875 378.125 29.484375Q378.60938 28.765625 379.3125 28.375Q380.01562 27.984375 380.96875 27.984375Q382.01562 27.984375 382.79688 28.390625Q383.57812 28.78125 384.07812 29.5Q384.59375 30.21875 384.84375 31.203125Q385.09375 32.171875 385.09375 33.359375ZM382.28125 33.5625L382.28125 33.359375Q382.28125 32.71875 382.1875 32.15625Q382.09375 31.578125 381.875 31.140625Q381.65625 30.703125 381.26562 30.453125Q380.875 30.1875 380.26562 30.1875Q379.70312 30.1875 379.29688 30.390625Q378.89062 30.578125 378.625 30.9375Q378.375 31.28125 378.25 31.765625Q378.125 32.25 378.09375 32.828125L378.09375 34.109375Q378.125 34.875 378.34375 35.46875Q378.57812 36.0625 379.04688 36.40625Q379.53125 36.734375 380.29688 36.734375Q380.89062 36.734375 381.28125 36.5Q381.67188 36.265625 381.89062 35.84375Q382.10938 35.40625 382.1875 34.828125Q382.28125 34.25 382.28125 33.5625ZM392.84375 36.21875L392.84375 28.1875L395.65625 28.1875L395.65625 38.75L393.01562 38.75L392.84375 36.21875ZM393.15625 34.046875L393.98438 34.03125Q393.98438 35.09375 393.73438 36.0Q393.5 36.890625 393.0 37.5625Q392.51562 38.21875 391.76562 38.59375Q391.03125 38.953125 390.03125 38.953125Q389.26562 38.953125 388.60938 38.734375Q387.96875 38.5 387.5 38.03125Q387.03125 37.5625 386.76562 36.8125Q386.51562 36.0625 386.51562 35.015625L386.51562 28.1875L389.32812 28.1875L389.32812 35.03125Q389.32812 35.5 389.4375 35.828125Q389.54688 36.140625 389.75 36.34375Q389.96875 36.546875 390.23438 36.640625Q390.51562 36.734375 390.85938 36.734375Q391.73438 36.734375 392.23438 36.390625Q392.73438 36.03125 392.9375 35.421875Q393.15625 34.796875 393.15625 34.046875ZM402.76562 28.1875L402.76562 30.171875L396.625 30.171875L396.625 28.1875L402.76562 28.1875ZM398.14062 25.578125L400.95312 25.578125L400.95312 35.5625Q400.95312 36.03125 401.07812 36.28125Q401.20312 36.515625 401.4375 36.609375Q401.6875 36.703125 402.0625 36.703125Q402.32812 36.703125 402.53125 36.6875Q402.73438 36.65625 402.89062 36.625L402.89062 38.6875Q402.53125 38.8125 402.10938 38.875Q401.70312 38.953125 401.1875 38.953125Q400.26562 38.953125 399.57812 38.640625Q398.89062 38.328125 398.51562 37.65625Q398.14062 36.96875 398.14062 35.84375L398.14062 25.578125ZM407.5625 28.1875L407.5625 38.75L404.73438 38.75L404.73438 28.1875L407.5625 28.1875ZM404.5625 25.421875Q404.5625 24.8125 404.98438 24.421875Q405.42188 24.015625 406.14062 24.015625Q406.85938 24.015625 407.29688 24.421875Q407.73438 24.8125 407.73438 25.421875Q407.73438 26.046875 407.29688 26.453125Q406.85938 26.84375 406.14062 26.84375Q405.42188 26.84375 404.98438 26.453125Q404.5625 26.046875 404.5625 25.421875ZM409.14062 33.578125L409.14062 33.375Q409.14062 32.203125 409.46875 31.234375Q409.8125 30.25 410.4375 29.53125Q411.07812 28.796875 412.0 28.390625Q412.9375 27.984375 414.14062 27.984375Q415.34375 27.984375 416.28125 28.390625Q417.21875 28.796875 417.84375 29.53125Q418.48438 30.25 418.8125 31.234375Q419.15625 32.203125 419.15625 33.375L419.15625 33.578125Q419.15625 34.71875 418.8125 35.703125Q418.48438 36.6875 417.84375 37.421875Q417.21875 38.140625 416.28125 38.546875Q415.35938 38.953125 414.15625 38.953125Q412.95312 38.953125 412.01562 38.546875Q411.09375 38.140625 410.45312 37.421875Q409.8125 36.6875 409.46875 35.703125Q409.14062 34.71875 409.14062 33.578125ZM411.95312 33.375L411.95312 33.578125Q411.95312 34.234375 412.0625 34.8125Q412.1875 35.390625 412.4375 35.828125Q412.70312 36.265625 413.125 36.515625Q413.54688 36.75 414.15625 36.75Q414.73438 36.75 415.15625 36.515625Q415.57812 36.265625 415.82812 35.828125Q416.09375 35.390625 416.20312 34.8125Q416.32812 34.234375 416.32812 33.578125L416.32812 33.375Q416.32812 32.71875 416.20312 32.15625Q416.09375 31.578125 415.82812 31.140625Q415.57812 30.6875 415.15625 30.4375Q414.73438 30.1875 414.14062 30.1875Q413.54688 30.1875 413.125 30.4375Q412.70312 30.6875 412.4375 31.140625Q412.1875 31.578125 412.0625 32.15625Q411.95312 32.71875 411.95312 33.375ZM423.34375 30.4375L423.34375 38.75L420.53125 38.75L420.53125 28.1875L423.17188 28.1875L423.34375 30.4375ZM422.9375 33.09375L422.17188 33.09375Q422.17188 31.921875 422.46875 30.984375Q422.78125 30.03125 423.32812 29.375Q423.875 28.703125 424.625 28.34375Q425.39062 27.984375 426.32812 27.984375Q427.0625 27.984375 427.67188 28.203125Q428.29688 28.421875 428.73438 28.890625Q429.1875 29.359375 429.42188 30.125Q429.67188 30.890625 429.67188 32.015625L429.67188 38.75L426.82812 38.75L426.82812 32.0Q426.82812 31.296875 426.625 30.90625Q426.4375 30.515625 426.0625 30.359375Q425.6875 30.1875 425.14062 30.1875Q424.57812 30.1875 424.15625 30.421875Q423.75 30.640625 423.48438 31.046875Q423.21875 31.4375 423.07812 31.96875Q422.9375 32.484375 422.9375 33.09375ZM446.20312 36.546875L446.20312 38.75L436.48438 38.75L436.48438 36.875L441.07812 31.9375Q441.76562 31.171875 442.17188 30.578125Q442.57812 29.984375 442.75 29.515625Q442.9375 29.046875 442.9375 28.609375Q442.9375 27.96875 442.71875 27.515625Q442.5 27.046875 442.07812 26.796875Q441.67188 26.53125 441.0625 26.53125Q440.42188 26.53125 439.95312 26.84375Q439.5 27.15625 439.25 27.71875Q439.01562 28.265625 439.01562 28.96875L436.1875 28.96875Q436.1875 27.703125 436.79688 26.640625Q437.40625 25.578125 438.5 24.953125Q439.60938 24.328125 441.125 24.328125Q442.625 24.328125 443.65625 24.8125Q444.6875 25.296875 445.21875 26.203125Q445.75 27.09375 445.75 28.34375Q445.75 29.046875 445.51562 29.71875Q445.29688 30.390625 444.875 31.046875Q444.46875 31.703125 443.875 32.390625Q443.29688 33.0625 442.57812 33.78125L440.10938 36.546875L446.20312 36.546875ZM457.04688 30.390625L457.04688 32.84375Q457.04688 34.453125 456.70312 35.609375Q456.35938 36.765625 455.71875 37.5Q455.07812 38.234375 454.20312 38.59375Q453.32812 38.953125 452.25 38.953125Q451.39062 38.953125 450.64062 38.734375Q449.90625 38.5 449.3125 38.03125Q448.73438 37.5625 448.29688 36.84375Q447.875 36.125 447.64062 35.140625Q447.42188 34.140625 447.42188 32.84375L447.42188 30.390625Q447.42188 28.78125 447.76562 27.640625Q448.125 26.5 448.76562 25.765625Q449.40625 25.03125 450.28125 24.6875Q451.15625 24.328125 452.23438 24.328125Q453.09375 24.328125 453.82812 24.5625Q454.5625 24.78125 455.15625 25.234375Q455.76562 25.6875 456.17188 26.40625Q456.59375 27.125 456.8125 28.125Q457.04688 29.109375 457.04688 30.390625ZM454.21875 33.21875L454.21875 30.015625Q454.21875 29.234375 454.14062 28.65625Q454.0625 28.078125 453.89062 27.6875Q453.73438 27.28125 453.48438 27.03125Q453.23438 26.765625 452.92188 26.65625Q452.60938 26.53125 452.23438 26.53125Q451.75 26.53125 451.375 26.71875Q451.01562 26.90625 450.76562 27.3125Q450.51562 27.71875 450.375 28.390625Q450.25 29.046875 450.25 30.015625L450.25 33.21875Q450.25 34.0 450.32812 34.59375Q450.42188 35.171875 450.59375 35.59375Q450.76562 36.0 451.0 36.265625Q451.23438 36.515625 451.54688 36.640625Q451.875 36.75 452.25 36.75Q452.71875 36.75 453.07812 36.5625Q453.45312 36.359375 453.70312 35.953125Q453.96875 35.53125 454.09375 34.859375Q454.21875 34.1875 454.21875 33.21875ZM465.32812 24.5L465.32812 38.75L462.51562 38.75L462.51562 27.75L459.14062 28.8125L459.14062 26.59375L465.03125 24.5L465.32812 24.5ZM479.0625 34.859375Q479.0625 36.1875 478.4375 37.109375Q477.8125 38.015625 476.71875 38.484375Q475.625 38.953125 474.25 38.953125Q472.875 38.953125 471.78125 38.484375Q470.6875 38.015625 470.04688 37.109375Q469.42188 36.1875 469.42188 34.859375Q469.42188 33.953125 469.78125 33.234375Q470.14062 32.5 470.78125 31.984375Q471.4375 31.453125 472.3125 31.171875Q473.20312 30.890625 474.23438 30.890625Q475.625 30.890625 476.71875 31.390625Q477.8125 31.875 478.4375 32.765625Q479.0625 33.65625 479.0625 34.859375ZM476.21875 34.671875Q476.21875 34.015625 475.96875 33.546875Q475.73438 33.0625 475.28125 32.8125Q474.82812 32.5625 474.23438 32.5625Q473.64062 32.5625 473.1875 32.8125Q472.73438 33.0625 472.48438 33.546875Q472.23438 34.015625 472.23438 34.671875Q472.23438 35.3125 472.48438 35.78125Q472.73438 36.25 473.1875 36.5Q473.64062 36.75 474.25 36.75Q474.85938 36.75 475.29688 36.5Q475.75 36.25 475.98438 35.78125Q476.21875 35.3125 476.21875 34.671875ZM478.75 28.296875Q478.75 29.390625 478.17188 30.21875Q477.60938 31.046875 476.57812 31.515625Q475.5625 31.984375 474.25 31.984375Q472.9375 31.984375 471.90625 31.515625Q470.89062 31.046875 470.3125 30.21875Q469.73438 29.390625 469.73438 28.296875Q469.73438 27.015625 470.3125 26.140625Q470.89062 25.25 471.90625 24.796875Q472.9375 24.328125 474.23438 24.328125Q475.54688 24.328125 476.5625 24.796875Q477.59375 25.25 478.17188 26.140625Q478.75 27.015625 478.75 28.296875ZM475.9375 28.421875Q475.9375 27.84375 475.73438 27.421875Q475.53125 27.0 475.15625 26.765625Q474.78125 26.53125 474.23438 26.53125Q473.70312 26.53125 473.32812 26.765625Q472.95312 26.984375 472.75 27.40625Q472.54688 27.828125 472.54688 28.421875Q472.54688 29.0 472.75 29.4375Q472.95312 29.875 473.32812 30.125Q473.71875 30.359375 474.25 30.359375Q474.79688 30.359375 475.17188 30.125Q475.54688 29.875 475.73438 29.4375Q475.9375 29.0 475.9375 28.421875ZM486.14062 31.546875L486.14062 33.75L480.625 33.75L480.625 31.546875L486.14062 31.546875ZM498.20312 36.546875L498.20312 38.75L488.48438 38.75L488.48438 36.875L493.07812 31.9375Q493.76562 31.171875 494.17188 30.578125Q494.57812 29.984375 494.75 29.515625Q494.9375 29.046875 494.9375 28.609375Q494.9375 27.96875 494.71875 27.515625Q494.5 27.046875 494.07812 26.796875Q493.67188 26.53125 493.0625 26.53125Q492.42188 26.53125 491.95312 26.84375Q491.5 27.15625 491.25 27.71875Q491.01562 28.265625 491.01562 28.96875L488.1875 28.96875Q488.1875 27.703125 488.79688 26.640625Q489.40625 25.578125 490.5 24.953125Q491.60938 24.328125 493.125 24.328125Q494.625 24.328125 495.65625 24.8125Q496.6875 25.296875 497.21875 26.203125Q497.75 27.09375 497.75 28.34375Q497.75 29.046875 497.51562 29.71875Q497.29688 30.390625 496.875 31.046875Q496.46875 31.703125 495.875 32.390625Q495.29688 33.0625 494.57812 33.78125L492.10938 36.546875L498.20312 36.546875ZM509.04688 30.390625L509.04688 32.84375Q509.04688 34.453125 508.70312 35.609375Q508.35938 36.765625 507.71875 37.5Q507.07812 38.234375 506.20312 38.59375Q505.32812 38.953125 504.25 38.953125Q503.39062 38.953125 502.64062 38.734375Q501.90625 38.5 501.3125 38.03125Q500.73438 37.5625 500.29688 36.84375Q499.875 36.125 499.64062 35.140625Q499.42188 34.140625 499.42188 32.84375L499.42188 30.390625Q499.42188 28.78125 499.76562 27.640625Q500.125 26.5 500.76562 25.765625Q501.40625 25.03125 502.28125 24.6875Q503.15625 24.328125 504.23438 24.328125Q505.09375 24.328125 505.82812 24.5625Q506.5625 24.78125 507.15625 25.234375Q507.76562 25.6875 508.17188 26.40625Q508.59375 27.125 508.8125 28.125Q509.04688 29.109375 509.04688 30.390625ZM506.21875 33.21875L506.21875 30.015625Q506.21875 29.234375 506.14062 28.65625Q506.0625 28.078125 505.89062 27.6875Q505.73438 27.28125 505.48438 27.03125Q505.23438 26.765625 504.92188 26.65625Q504.60938 26.53125 504.23438 26.53125Q503.75 26.53125 503.375 26.71875Q503.01562 26.90625 502.76562 27.3125Q502.51562 27.71875 502.375 28.390625Q502.25 29.046875 502.25 30.015625L502.25 33.21875Q502.25 34.0 502.32812 34.59375Q502.42188 35.171875 502.59375 35.59375Q502.76562 36.0 503.0 36.265625Q503.23438 36.515625 503.54688 36.640625Q503.875 36.75 504.25 36.75Q504.71875 36.75 505.07812 36.5625Q505.45312 36.359375 505.70312 35.953125Q505.96875 35.53125 506.09375 34.859375Q506.21875 34.1875 506.21875 33.21875ZM520.2031 36.546875L520.2031 38.75L510.48438 38.75L510.48438 36.875L515.0781 31.9375Q515.7656 31.171875 516.1719 30.578125Q516.5781 29.984375 516.75 29.515625Q516.9375 29.046875 516.9375 28.609375Q516.9375 27.96875 516.71875 27.515625Q516.5 27.046875 516.0781 26.796875Q515.6719 26.53125 515.0625 26.53125Q514.4219 26.53125 513.9531 26.84375Q513.5 27.15625 513.25 27.71875Q513.0156 28.265625 513.0156 28.96875L510.1875 28.96875Q510.1875 27.703125 510.79688 26.640625Q511.40625 25.578125 512.5 24.953125Q513.6094 24.328125 515.125 24.328125Q516.625 24.328125 517.65625 24.8125Q518.6875 25.296875 519.21875 26.203125Q519.75 27.09375 519.75 28.34375Q519.75 29.046875 519.5156 29.71875Q519.2969 30.390625 518.875 31.046875Q518.46875 31.703125 517.875 32.390625Q517.2969 33.0625 516.5781 33.78125L514.1094 36.546875L520.2031 36.546875ZM531.4375 33.4375L531.4375 35.640625L521.1875 35.640625L521.0625 33.9375L526.9844 24.53125L529.21875 24.53125L526.7969 28.578125L523.84375 33.4375L531.4375 33.4375ZM529.8281 24.53125L529.8281 38.75L527.0156 38.75L527.0156 24.53125L529.8281 24.53125Z" fill-rule="nonzero"/></svg>