<svg version="1.1" viewBox="0.0 0.0 406.0 254.0" fill="none" stroke="none" stroke-linecap="square" stroke-miterlimit="10" width="406" height="254" xmlns:xlink="http://www.w3.org/1999/xlink" xmlns="http://www.w3.org/2000/svg"><path fill="#e8ecf6" d="M0 0L406.0 0L406.0 254.0L0 254.0L0 0Z" fill-rule="nonzero"/><path fill="#59095b" d="M176.72585 82.900925C184.84598 79.9583 193.85625 78.4225 203.0 78.4225L203.0 95.5675C193.85625 95.5675 184.84598 97.1033 176.72585 100.04592Z" fill-rule="nonzero"/><path fill="#7f0d82" d="M150.45168 47.374348C166.69196 41.489098 184.7125 38.4175 203.0 38.4175L203.0 78.4225C193.85625 78.4225 184.84598 79.9583 176.72585 82.900925Z" fill-rule="nonzero"/><path fill="#005090" d="M317.3 135.5725C317.3 179.7608 266.12616 215.5825 203.0 215.5825C139.87386 215.5825 88.7 179.7608 88.7 135.5725L88.7 118.4275C88.7 162.6158 139.87386 198.4375 203.0 198.4375C266.12616 198.4375 317.3 162.6158 317.3 118.4275Z" fill-rule="nonzero"/><path fill="#005090" d="M203.0 78.4225C234.56308 78.4225 260.15 96.33335 260.15 118.4275L260.15 135.5725C260.15 113.47835 234.56308 95.5675 203.0 95.5675Z" fill-rule="nonzero"/><path fill="#005090" d="M145.85 118.4275C145.85 103.47707 157.75902 89.77424 176.72585 82.900925L176.72585 100.04592C157.75902 106.919235 145.85 120.62207 145.85 135.5725Z" fill-rule="nonzero"/><path fill="#0072ce" d="M203.0 38.4175C260.85892 38.4175 309.59244 68.68218 316.48587 108.89495C323.3793 149.10771 286.2582 186.58398 230.04187 196.16605C173.82553 205.74811 116.24666 184.41342 95.95778 146.4839C75.6689 108.55439 99.06986 65.99441 150.45168 47.374348L176.72585 82.900925C151.03493 92.21095 139.33444 113.490944 149.4789 132.4557C159.62334 151.42046 188.41277 162.0878 216.52094 157.29677C244.6291 152.50574 263.18964 133.76761 259.74292 113.661224C256.29623 93.55484 231.92946 78.4225 203.0 78.4225Z" fill-rule="nonzero"/><path fill="#1a1a1a" d="M13.465625 31.544632L16.6375 31.544632Q17.621876 31.544632 18.325 31.841507Q19.028126 32.122757 19.403126 32.700882Q19.79375 33.279007 19.79375 34.122757Q19.79375 34.794632 19.559376 35.294632Q19.340626 35.779007 18.91875 36.107132Q18.496876 36.435257 17.934376 36.622757L17.371876 36.919632L14.60625 36.919632L14.60625 35.544632L16.653126 35.544632Q17.121876 35.544632 17.41875 35.388382Q17.73125 35.216507 17.8875 34.935257Q18.04375 34.638382 18.04375 34.247757Q18.04375 33.841507 17.8875 33.544632Q17.73125 33.232132 17.41875 33.075882Q17.10625 32.919632 16.6375 32.919632L15.215625 32.919632L15.215625 40.075882L13.465625 40.075882L13.465625 31.544632ZM18.23125 40.075882L16.29375 36.279007L18.1375 36.263382L20.10625 39.997757L20.10625 40.075882L18.23125 40.075882ZM24.278126 40.200882Q23.54375 40.200882 22.95 39.966507Q22.371876 39.716507 21.95 39.294632Q21.54375 38.872757 21.325 38.310257Q21.121876 37.747757 21.121876 37.122757L21.121876 36.888382Q21.121876 36.169632 21.325 35.575882Q21.528126 34.966507 21.903126 34.529007Q22.29375 34.091507 22.840626 33.857132Q23.403126 33.622757 24.090626 33.622757Q24.7625 33.622757 25.278126 33.841507Q25.809376 34.060257 26.153126 34.482132Q26.5125 34.888382 26.684376 35.466507Q26.871876 36.029007 26.871876 36.716507L26.871876 37.419632L21.840626 37.419632L21.840626 36.294632L25.215626 36.294632L25.215626 36.169632Q25.215626 35.825882 25.090626 35.544632Q24.965626 35.263382 24.715626 35.107132Q24.465626 34.935257 24.075 34.935257Q23.73125 34.935257 23.496876 35.091507Q23.2625 35.232132 23.10625 35.497757Q22.95 35.763382 22.871876 36.122757Q22.809376 36.466507 22.809376 36.888382L22.809376 37.122757Q22.809376 37.497757 22.91875 37.825882Q23.028126 38.154007 23.23125 38.388382Q23.434376 38.622757 23.715626 38.747757Q24.0125 38.872757 24.3875 38.872757Q24.840626 38.872757 25.23125 38.700882Q25.621876 38.513382 25.91875 38.154007L26.73125 39.044632Q26.54375 39.325882 26.2 39.591507Q25.85625 39.857132 25.371876 40.029007Q24.8875 40.200882 24.278126 40.200882ZM31.371876 33.732132L32.903126 33.732132L32.903126 39.857132Q32.903126 40.732132 32.5125 41.341507Q32.1375 41.950882 31.45 42.263382Q30.7625 42.575882 29.85625 42.575882Q29.45 42.575882 29.0125 42.466507Q28.575 42.357132 28.16875 42.138382Q27.7625 41.919632 27.496876 41.575882L28.246876 40.575882Q28.528126 40.919632 28.91875 41.107132Q29.309376 41.294632 29.778126 41.294632Q30.23125 41.294632 30.54375 41.122757Q30.871876 40.966507 31.028126 40.638382Q31.2 40.325882 31.2 39.872757L31.2 35.200882L31.371876 33.732132ZM27.10625 36.982132L27.10625 36.857132Q27.10625 36.138382 27.278126 35.544632Q27.465626 34.935257 27.79375 34.513382Q28.121876 34.091507 28.590626 33.857132Q29.075 33.622757 29.66875 33.622757Q30.309376 33.622757 30.73125 33.857132Q31.153126 34.091507 31.434376 34.529007Q31.715626 34.950882 31.871876 35.529007Q32.028126 36.107132 32.10625 36.810257L32.10625 37.075882Q32.028126 37.732132 31.840626 38.310257Q31.66875 38.872757 31.371876 39.294632Q31.090626 39.716507 30.66875 39.966507Q30.246876 40.200882 29.653126 40.200882Q29.075 40.200882 28.60625 39.966507Q28.1375 39.716507 27.79375 39.279007Q27.465626 38.841507 27.278126 38.263382Q27.10625 37.669632 27.10625 36.982132ZM28.79375 36.857132L28.79375 36.982132Q28.79375 37.372757 28.871876 37.716507Q28.95 38.060257 29.10625 38.325882Q29.2625 38.575882 29.496876 38.716507Q29.746876 38.857132 30.090626 38.857132Q30.54375 38.857132 30.840626 38.669632Q31.1375 38.466507 31.278126 38.122757Q31.434376 37.779007 31.45 37.325882L31.45 36.560257Q31.434376 36.185257 31.340626 35.888382Q31.2625 35.591507 31.10625 35.388382Q30.95 35.169632 30.7 35.060257Q30.45 34.935257 30.10625 34.935257Q29.7625 34.935257 29.5125 35.091507Q29.278126 35.247757 29.10625 35.513382Q28.95 35.763382 28.871876 36.107132Q28.79375 36.450882 28.79375 36.857132ZM36.1375 33.732132L36.1375 40.075882L34.45 40.075882L34.45 33.732132L36.1375 33.732132ZM34.340626 32.075882Q34.340626 31.716507 34.590626 31.482132Q34.85625 31.232132 35.29375 31.232132Q35.715626 31.232132 35.965626 31.482132Q36.23125 31.716507 36.23125 32.075882Q36.23125 32.450882 35.965626 32.700882Q35.715626 32.935257 35.29375 32.935257Q34.85625 32.935257 34.590626 32.700882Q34.340626 32.450882 34.340626 32.075882ZM37.090626 36.966507L37.090626 36.841507Q37.090626 36.154007 37.278126 35.560257Q37.48125 34.966507 37.85625 34.544632Q38.246876 34.107132 38.79375 33.872757Q39.35625 33.622757 40.075 33.622757Q40.809376 33.622757 41.371876 33.872757Q41.934376 34.107132 42.309376 34.544632Q42.7 34.966507 42.8875 35.560257Q43.090626 36.154007 43.090626 36.841507L43.090626 36.966507Q43.090626 37.654007 42.8875 38.247757Q42.7 38.841507 42.309376 39.279007Q41.934376 39.716507 41.371876 39.966507Q40.809376 40.200882 40.090626 40.200882Q39.371876 40.200882 38.809376 39.966507Q38.246876 39.716507 37.85625 39.279007Q37.48125 38.841507 37.278126 38.247757Q37.090626 37.654007 37.090626 36.966507ZM38.778126 36.841507L38.778126 36.966507Q38.778126 37.372757 38.840626 37.716507Q38.91875 38.060257 39.075 38.325882Q39.23125 38.575882 39.48125 38.732132Q39.73125 38.872757 40.090626 38.872757Q40.45 38.872757 40.7 38.732132Q40.95 38.575882 41.090626 38.325882Q41.246876 38.060257 41.325 37.716507Q41.403126 37.372757 41.403126 36.966507L41.403126 36.841507Q41.403126 36.466507 41.325 36.122757Q41.246876 35.779007 41.090626 35.513382Q40.95 35.247757 40.684376 35.091507Q40.434376 34.935257 40.075 34.935257Q39.73125 34.935257 39.48125 35.091507Q39.23125 35.247757 39.075 35.513382Q38.91875 35.779007 38.840626 36.122757Q38.778126 36.466507 38.778126 36.841507ZM46.0125 35.091507L46.0125 40.075882L44.325 40.075882L44.325 33.732132L45.903126 33.732132L46.0125 35.091507ZM45.7625 36.685257L45.309376 36.685257Q45.309376 35.982132 45.48125 35.419632Q45.66875 34.841507 45.996876 34.450882Q46.325 34.044632 46.778126 33.841507Q47.23125 33.622757 47.79375 33.622757Q48.246876 33.622757 48.60625 33.747757Q48.98125 33.872757 49.246876 34.154007Q49.5125 34.435257 49.653126 34.904007Q49.79375 35.357132 49.79375 36.029007L49.79375 40.075882L48.10625 40.075882L48.10625 36.029007Q48.10625 35.607132 47.98125 35.372757Q47.871876 35.138382 47.6375 35.044632Q47.41875 34.935257 47.090626 34.935257Q46.746876 34.935257 46.496876 35.075882Q46.246876 35.216507 46.090626 35.450882Q45.934376 35.685257 45.840626 36.013382Q45.7625 36.325882 45.7625 36.685257ZM54.778126 38.638382L54.778126 35.825882Q54.778126 35.513382 54.66875 35.294632Q54.575 35.075882 54.371876 34.950882Q54.16875 34.825882 53.840626 34.825882Q53.559376 34.825882 53.340626 34.935257Q53.1375 35.029007 53.028126 35.216507Q52.91875 35.388382 52.91875 35.622757L51.23125 35.622757Q51.23125 35.216507 51.41875 34.857132Q51.60625 34.497757 51.965626 34.216507Q52.325 33.935257 52.809376 33.779007Q53.309376 33.622757 53.934376 33.622757Q54.66875 33.622757 55.23125 33.872757Q55.809376 34.107132 56.1375 34.607132Q56.48125 35.091507 56.48125 35.825882L56.48125 38.544632Q56.48125 39.060257 56.54375 39.404007Q56.60625 39.732132 56.73125 39.982132L56.73125 40.075882L55.028126 40.075882Q54.903126 39.810257 54.840626 39.435257Q54.778126 39.044632 54.778126 38.638382ZM54.996876 36.216507L55.0125 37.169632L54.075 37.169632Q53.73125 37.169632 53.48125 37.247757Q53.246876 37.325882 53.090626 37.466507Q52.934376 37.591507 52.85625 37.779007Q52.778126 37.966507 52.778126 38.169632Q52.778126 38.388382 52.871876 38.560257Q52.98125 38.732132 53.16875 38.841507Q53.35625 38.935257 53.60625 38.935257Q53.98125 38.935257 54.2625 38.779007Q54.54375 38.622757 54.7 38.404007Q54.85625 38.185257 54.871876 37.982132L55.309376 38.700882Q55.215626 38.935257 55.059376 39.200882Q54.903126 39.450882 54.653126 39.685257Q54.403126 39.904007 54.059376 40.060257Q53.715626 40.200882 53.23125 40.200882Q52.6375 40.200882 52.1375 39.950882Q51.653126 39.700882 51.371876 39.279007Q51.090626 38.841507 51.090626 38.294632Q51.090626 37.794632 51.278126 37.419632Q51.465626 37.029007 51.825 36.763382Q52.2 36.482132 52.746876 36.357132Q53.29375 36.216507 54.028126 36.216507L54.996876 36.216507ZM59.1375 31.075882L59.1375 40.075882L57.45 40.075882L57.45 31.075882L59.1375 31.075882Z" fill-rule="nonzero"/><path fill="#898b91" d="M19.075 49.544632L19.075 50.450882L15.778125 58.075882L13.996875 58.075882L17.29375 50.857132L13.059375 50.857132L13.059375 49.544632L19.075 49.544632ZM20.434376 57.263382Q20.434376 56.888382 20.7 56.638382Q20.965626 56.388382 21.3875 56.388382Q21.825 56.388382 22.090626 56.638382Q22.35625 56.888382 22.35625 57.263382Q22.35625 57.638382 22.090626 57.888382Q21.825 58.138382 21.3875 58.138382Q20.965626 58.138382 20.7 57.888382Q20.434376 57.638382 20.434376 57.263382ZM27.6375 49.450882L27.8875 49.450882L27.8875 50.810257L27.79375 50.810257Q27.121876 50.810257 26.590626 51.013382Q26.075 51.200882 25.715626 51.575882Q25.35625 51.935257 25.16875 52.450882Q24.98125 52.966507 24.98125 53.607132L24.98125 55.029007Q24.98125 55.482132 25.059376 55.825882Q25.153126 56.169632 25.325 56.404007Q25.496876 56.638382 25.73125 56.763382Q25.965626 56.872757 26.2625 56.872757Q26.54375 56.872757 26.7625 56.763382Q26.996876 56.638382 27.153126 56.419632Q27.309376 56.200882 27.3875 55.919632Q27.48125 55.622757 27.48125 55.279007Q27.48125 54.935257 27.3875 54.638382Q27.309376 54.341507 27.1375 54.138382Q26.98125 53.919632 26.746876 53.810257Q26.5125 53.685257 26.215626 53.685257Q25.825 53.685257 25.5125 53.872757Q25.215626 54.060257 25.04375 54.341507Q24.8875 54.622757 24.871876 54.950882L24.35625 54.622757Q24.371876 54.169632 24.54375 53.763382Q24.715626 53.357132 25.028126 53.044632Q25.340626 52.732132 25.7625 52.560257Q26.2 52.372757 26.746876 52.372757Q27.340626 52.372757 27.79375 52.607132Q28.2625 52.825882 28.559376 53.232132Q28.871876 53.622757 29.0125 54.154007Q29.16875 54.669632 29.16875 55.263382Q29.16875 55.888382 28.965626 56.419632Q28.7625 56.950882 28.3875 57.357132Q28.0125 57.747757 27.48125 57.982132Q26.95 58.200882 26.29375 58.200882Q25.621876 58.200882 25.059376 57.950882Q24.5125 57.700882 24.10625 57.247757Q23.715626 56.794632 23.496876 56.169632Q23.29375 55.544632 23.29375 54.810257L23.29375 54.154007Q23.29375 53.122757 23.590626 52.263382Q23.8875 51.404007 24.45 50.779007Q25.028126 50.154007 25.825 49.810257Q26.6375 49.450882 27.6375 49.450882ZM30.2625 51.638382L30.2625 51.185257Q30.2625 50.700882 30.465626 50.310257Q30.684376 49.904007 31.090626 49.669632Q31.5125 49.419632 32.10625 49.419632Q32.715626 49.419632 33.121876 49.669632Q33.54375 49.904007 33.746876 50.310257Q33.965626 50.700882 33.965626 51.185257L33.965626 51.638382Q33.965626 52.107132 33.746876 52.513382Q33.54375 52.904007 33.1375 53.154007Q32.73125 53.388382 32.121876 53.388382Q31.5125 53.388382 31.090626 53.154007Q30.684376 52.904007 30.465626 52.513382Q30.2625 52.107132 30.2625 51.638382ZM31.3875 51.185257L31.3875 51.638382Q31.3875 51.841507 31.465626 52.029007Q31.54375 52.216507 31.7 52.325882Q31.871876 52.435257 32.121876 52.435257Q32.371876 52.435257 32.528126 52.325882Q32.684376 52.216507 32.7625 52.029007Q32.840626 51.841507 32.840626 51.638382L32.840626 51.185257Q32.840626 50.966507 32.7625 50.779007Q32.684376 50.591507 32.5125 50.482132Q32.35625 50.372757 32.10625 50.372757Q31.85625 50.372757 31.7 50.482132Q31.54375 50.591507 31.465626 50.779007Q31.3875 50.966507 31.3875 51.185257ZM34.340626 56.435257L34.340626 55.982132Q34.340626 55.497757 34.54375 55.107132Q34.7625 54.700882 35.16875 54.466507Q35.590626 54.232132 36.2 54.232132Q36.809376 54.232132 37.215626 54.466507Q37.621876 54.700882 37.825 55.107132Q38.04375 55.497757 38.04375 55.982132L38.04375 56.435257Q38.04375 56.919632 37.840626 57.325882Q37.6375 57.716507 37.215626 57.966507Q36.809376 58.200882 36.215626 58.200882Q35.60625 58.200882 35.184376 57.966507Q34.7625 57.716507 34.54375 57.325882Q34.340626 56.919632 34.340626 56.435257ZM35.465626 55.982132L35.465626 56.435257Q35.465626 56.638382 35.559376 56.825882Q35.653126 57.013382 35.809376 57.138382Q35.98125 57.247757 36.215626 57.247757Q36.496876 57.247757 36.653126 57.138382Q36.809376 57.013382 36.871876 56.825882Q36.934376 56.638382 36.934376 56.435257L36.934376 55.982132Q36.934376 55.779007 36.840626 55.591507Q36.7625 55.404007 36.60625 55.294632Q36.45 55.169632 36.2 55.169632Q35.95 55.169632 35.79375 55.294632Q35.6375 55.404007 35.54375 55.591507Q35.465626 55.779007 35.465626 55.982132ZM36.621876 50.763382L32.45 57.435257L31.621876 56.997757L35.79375 50.325882L36.621876 50.763382Z" fill-rule="nonzero"/><path stroke="#606266" stroke-width="1.0" stroke-linecap="butt" d="M12.7 44.575882L82.7 44.575882L177.31023 44.575882" fill-rule="nonzero"/><path fill="#898b91" d="M179.31023 44.575882C179.31023 43.471313 178.4148 42.575882 177.31023 42.575882C176.20566 42.575882 175.31023 43.471313 175.31023 44.575882C175.31023 45.68045 176.20566 46.575882 177.31023 46.575882C178.4148 46.575882 179.31023 45.68045 179.31023 44.575882" fill-rule="nonzero"/><path fill="#1a1a1a" d="M325.8625 179.24786L327.34686 179.24786L329.55 185.51349L331.7375 179.24786L333.22186 179.24786L330.14374 187.77911L328.9406 187.77911L325.8625 179.24786ZM325.0656 179.24786L326.55 179.24786L326.8156 185.35724L326.8156 187.77911L325.0656 187.77911L325.0656 179.24786ZM332.55 179.24786L334.03436 179.24786L334.03436 187.77911L332.26874 187.77911L332.26874 185.35724L332.55 179.24786ZM338.8781 187.90411Q338.14374 187.90411 337.55 187.66974Q336.97186 187.41974 336.55 186.99786Q336.14374 186.57599 335.925 186.01349Q335.72186 185.45099 335.72186 184.82599L335.72186 184.59161Q335.72186 183.87286 335.925 183.27911Q336.1281 182.66974 336.5031 182.23224Q336.89374 181.79474 337.4406 181.56036Q338.0031 181.32599 338.6906 181.32599Q339.3625 181.32599 339.8781 181.54474Q340.40936 181.76349 340.7531 182.18536Q341.1125 182.59161 341.28436 183.16974Q341.47186 183.73224 341.47186 184.41974L341.47186 185.12286L336.4406 185.12286L336.4406 183.99786L339.8156 183.99786L339.8156 183.87286Q339.8156 183.52911 339.6906 183.24786Q339.5656 182.96661 339.3156 182.81036Q339.0656 182.63849 338.675 182.63849Q338.33124 182.63849 338.09686 182.79474Q337.8625 182.93536 337.70624 183.20099Q337.55 183.46661 337.47186 183.82599Q337.40936 184.16974 337.40936 184.59161L337.40936 184.82599Q337.40936 185.20099 337.51874 185.52911Q337.6281 185.85724 337.83124 186.09161Q338.03436 186.32599 338.3156 186.45099Q338.6125 186.57599 338.9875 186.57599Q339.4406 186.57599 339.83124 186.40411Q340.22186 186.21661 340.51874 185.85724L341.33124 186.74786Q341.14374 187.02911 340.8 187.29474Q340.45624 187.56036 339.97186 187.73224Q339.4875 187.90411 338.8781 187.90411ZM345.0656 181.43536L345.0656 182.63849L341.3781 182.63849L341.3781 181.43536L345.0656 181.43536ZM342.28436 179.87286L343.97186 179.87286L343.97186 185.87286Q343.97186 186.13849 344.03436 186.29474Q344.1125 186.43536 344.2531 186.49786Q344.40936 186.54474 344.6281 186.54474Q344.8 186.54474 344.925 186.52911Q345.05 186.51349 345.1281 186.49786L345.14374 187.74786Q344.925 187.81036 344.675 187.85724Q344.425 187.90411 344.1125 187.90411Q343.55 187.90411 343.14374 187.71661Q342.7375 187.52911 342.5031 187.12286Q342.28436 186.70099 342.28436 186.04474L342.28436 179.87286ZM347.64374 182.82599L347.64374 187.77911L345.95624 187.77911L345.95624 181.43536L347.55 181.43536L347.64374 182.82599ZM349.55 181.40411L349.51874 182.96661Q349.40936 182.95099 349.22186 182.93536Q349.05 182.91974 348.90936 182.91974Q348.5656 182.91974 348.3 183.01349Q348.03436 183.09161 347.8625 183.27911Q347.6906 183.45099 347.59686 183.70099Q347.51874 183.95099 347.5031 184.27911L347.175 184.16974Q347.175 183.56036 347.28436 183.04474Q347.40936 182.51349 347.64374 182.13849Q347.89374 181.74786 348.2375 181.54474Q348.58124 181.32599 349.03436 181.32599Q349.175 181.32599 349.3156 181.34161Q349.45624 181.35724 349.55 181.40411ZM349.6906 184.66974L349.6906 184.54474Q349.6906 183.85724 349.8781 183.26349Q350.08124 182.66974 350.45624 182.24786Q350.84686 181.81036 351.39374 181.57599Q351.95624 181.32599 352.675 181.32599Q353.40936 181.32599 353.97186 181.57599Q354.53436 181.81036 354.90936 182.24786Q355.3 182.66974 355.4875 183.26349Q355.6906 183.85724 355.6906 184.54474L355.6906 184.66974Q355.6906 185.35724 355.4875 185.95099Q355.3 186.54474 354.90936 186.98224Q354.53436 187.41974 353.97186 187.66974Q353.40936 187.90411 352.6906 187.90411Q351.97186 187.90411 351.40936 187.66974Q350.84686 187.41974 350.45624 186.98224Q350.08124 186.54474 349.8781 185.95099Q349.6906 185.35724 349.6906 184.66974ZM351.3781 184.54474L351.3781 184.66974Q351.3781 185.07599 351.4406 185.41974Q351.51874 185.76349 351.675 186.02911Q351.83124 186.27911 352.08124 186.43536Q352.33124 186.57599 352.6906 186.57599Q353.05 186.57599 353.3 186.43536Q353.55 186.27911 353.6906 186.02911Q353.84686 185.76349 353.925 185.41974Q354.0031 185.07599 354.0031 184.66974L354.0031 184.54474Q354.0031 184.16974 353.925 183.82599Q353.84686 183.48224 353.6906 183.21661Q353.55 182.95099 353.28436 182.79474Q353.03436 182.63849 352.675 182.63849Q352.33124 182.63849 352.08124 182.79474Q351.83124 182.95099 351.675 183.21661Q351.51874 183.48224 351.4406 183.82599Q351.3781 184.16974 351.3781 184.54474ZM358.64374 182.65411L358.64374 190.21661L356.95624 190.21661L356.95624 181.43536L358.51874 181.43536L358.64374 182.65411ZM362.65936 184.54474L362.65936 184.65411Q362.65936 185.35724 362.4875 185.95099Q362.33124 186.52911 362.01874 186.96661Q361.72186 187.40411 361.2531 187.65411Q360.8 187.90411 360.1906 187.90411Q359.6125 187.90411 359.1906 187.66974Q358.76874 187.41974 358.47186 186.99786Q358.175 186.57599 358.0031 186.01349Q357.83124 185.45099 357.7375 184.81036L357.7375 184.48224Q357.83124 183.79474 358.0031 183.21661Q358.175 182.63849 358.47186 182.21661Q358.76874 181.79474 359.1906 181.56036Q359.6125 181.32599 360.1906 181.32599Q360.78436 181.32599 361.2375 181.56036Q361.70624 181.77911 362.01874 182.21661Q362.33124 182.63849 362.4875 183.23224Q362.65936 183.81036 362.65936 184.54474ZM360.97186 184.65411L360.97186 184.54474Q360.97186 184.13849 360.89374 183.79474Q360.83124 183.45099 360.6906 183.20099Q360.55 182.93536 360.3156 182.79474Q360.08124 182.63849 359.7531 182.63849Q359.40936 182.63849 359.15936 182.76349Q358.925 182.87286 358.76874 183.09161Q358.6125 183.29474 358.53436 183.59161Q358.45624 183.87286 358.4406 184.24786L358.4406 185.06036Q358.47186 185.49786 358.59686 185.84161Q358.7375 186.18536 359.01874 186.38849Q359.3 186.57599 359.76874 186.57599Q360.09686 186.57599 360.3156 186.43536Q360.55 186.27911 360.6906 186.01349Q360.84686 185.74786 360.90936 185.40411Q360.97186 185.06036 360.97186 184.65411ZM363.6906 184.66974L363.6906 184.54474Q363.6906 183.85724 363.8781 183.26349Q364.08124 182.66974 364.45624 182.24786Q364.84686 181.81036 365.39374 181.57599Q365.95624 181.32599 366.675 181.32599Q367.40936 181.32599 367.97186 181.57599Q368.53436 181.81036 368.90936 182.24786Q369.3 182.66974 369.4875 183.26349Q369.6906 183.85724 369.6906 184.54474L369.6906 184.66974Q369.6906 185.35724 369.4875 185.95099Q369.3 186.54474 368.90936 186.98224Q368.53436 187.41974 367.97186 187.66974Q367.40936 187.90411 366.6906 187.90411Q365.97186 187.90411 365.40936 187.66974Q364.84686 187.41974 364.45624 186.98224Q364.08124 186.54474 363.8781 185.95099Q363.6906 185.35724 363.6906 184.66974ZM365.3781 184.54474L365.3781 184.66974Q365.3781 185.07599 365.4406 185.41974Q365.51874 185.76349 365.675 186.02911Q365.83124 186.27911 366.08124 186.43536Q366.33124 186.57599 366.6906 186.57599Q367.05 186.57599 367.3 186.43536Q367.55 186.27911 367.6906 186.02911Q367.84686 185.76349 367.925 185.41974Q368.0031 185.07599 368.0031 184.66974L368.0031 184.54474Q368.0031 184.16974 367.925 183.82599Q367.84686 183.48224 367.6906 183.21661Q367.55 182.95099 367.28436 182.79474Q367.03436 182.63849 366.675 182.63849Q366.33124 182.63849 366.08124 182.79474Q365.83124 182.95099 365.675 183.21661Q365.51874 183.48224 365.4406 183.82599Q365.3781 184.16974 365.3781 184.54474ZM372.7375 178.77911L372.7375 187.77911L371.05 187.77911L371.05 178.77911L372.7375 178.77911ZM375.7375 181.43536L375.7375 187.77911L374.05 187.77911L374.05 181.43536L375.7375 181.43536ZM373.9406 179.77911Q373.9406 179.41974 374.1906 179.18536Q374.45624 178.93536 374.89374 178.93536Q375.3156 178.93536 375.5656 179.18536Q375.83124 179.41974 375.83124 179.77911Q375.83124 180.15411 375.5656 180.40411Q375.3156 180.63849 374.89374 180.63849Q374.45624 180.63849 374.1906 180.40411Q373.9406 180.15411 373.9406 179.77911ZM380.0656 181.43536L380.0656 182.63849L376.3781 182.63849L376.3781 181.43536L380.0656 181.43536ZM377.28436 179.87286L378.97186 179.87286L378.97186 185.87286Q378.97186 186.13849 379.03436 186.29474Q379.1125 186.43536 379.2531 186.49786Q379.40936 186.54474 379.6281 186.54474Q379.8 186.54474 379.925 186.52911Q380.05 186.51349 380.1281 186.49786L380.14374 187.74786Q379.925 187.81036 379.675 187.85724Q379.425 187.90411 379.1125 187.90411Q378.55 187.90411 378.14374 187.71661Q377.7375 187.52911 377.5031 187.12286Q377.28436 186.70099 377.28436 186.04474L377.28436 179.87286ZM384.3781 186.34161L384.3781 183.52911Q384.3781 183.21661 384.26874 182.99786Q384.175 182.77911 383.97186 182.65411Q383.76874 182.52911 383.4406 182.52911Q383.15936 182.52911 382.9406 182.63849Q382.7375 182.73224 382.6281 182.91974Q382.51874 183.09161 382.51874 183.32599L380.83124 183.32599Q380.83124 182.91974 381.01874 182.56036Q381.20624 182.20099 381.5656 181.91974Q381.925 181.63849 382.40936 181.48224Q382.90936 181.32599 383.53436 181.32599Q384.26874 181.32599 384.83124 181.57599Q385.40936 181.81036 385.7375 182.31036Q386.08124 182.79474 386.08124 183.52911L386.08124 186.24786Q386.08124 186.76349 386.14374 187.10724Q386.20624 187.43536 386.33124 187.68536L386.33124 187.77911L384.6281 187.77911Q384.5031 187.51349 384.4406 187.13849Q384.3781 186.74786 384.3781 186.34161ZM384.59686 183.91974L384.6125 184.87286L383.675 184.87286Q383.33124 184.87286 383.08124 184.95099Q382.84686 185.02911 382.6906 185.16974Q382.53436 185.29474 382.45624 185.48224Q382.3781 185.66974 382.3781 185.87286Q382.3781 186.09161 382.47186 186.26349Q382.58124 186.43536 382.76874 186.54474Q382.95624 186.63849 383.20624 186.63849Q383.58124 186.63849 383.8625 186.48224Q384.14374 186.32599 384.3 186.10724Q384.45624 185.88849 384.47186 185.68536L384.90936 186.40411Q384.8156 186.63849 384.65936 186.90411Q384.5031 187.15411 384.2531 187.38849Q384.0031 187.60724 383.65936 187.76349Q383.3156 187.90411 382.83124 187.90411Q382.2375 187.90411 381.7375 187.65411Q381.2531 187.40411 380.97186 186.98224Q380.6906 186.54474 380.6906 185.99786Q380.6906 185.49786 380.8781 185.12286Q381.0656 184.73224 381.425 184.46661Q381.8 184.18536 382.34686 184.06036Q382.89374 183.91974 383.6281 183.91974L384.59686 183.91974ZM388.6125 182.79474L388.6125 187.77911L386.925 187.77911L386.925 181.43536L388.5031 181.43536L388.6125 182.79474ZM388.3625 184.38849L387.90936 184.38849Q387.90936 183.68536 388.08124 183.12286Q388.26874 182.54474 388.59686 182.15411Q388.925 181.74786 389.3781 181.54474Q389.83124 181.32599 390.39374 181.32599Q390.84686 181.32599 391.20624 181.45099Q391.58124 181.57599 391.84686 181.85724Q392.1125 182.13849 392.2531 182.60724Q392.39374 183.06036 392.39374 183.73224L392.39374 187.77911L390.70624 187.77911L390.70624 183.73224Q390.70624 183.31036 390.58124 183.07599Q390.47186 182.84161 390.2375 182.74786Q390.01874 182.63849 389.6906 182.63849Q389.34686 182.63849 389.09686 182.77911Q388.84686 182.91974 388.6906 183.15411Q388.53436 183.38849 388.4406 183.71661Q388.3625 184.02911 388.3625 184.38849Z" fill-rule="nonzero"/><path fill="#898b91" d="M362.08124 204.49786L362.1906 204.49786Q362.89374 204.49786 363.39374 204.32599Q363.90936 204.15411 364.2375 203.82599Q364.5656 203.49786 364.72186 203.02911Q364.8781 202.54474 364.8781 201.93536L364.8781 200.31036Q364.8781 199.84161 364.78436 199.49786Q364.70624 199.13849 364.53436 198.91974Q364.3625 198.68536 364.14374 198.57599Q363.925 198.45099 363.65936 198.45099Q363.3781 198.45099 363.15936 198.59161Q362.95624 198.71661 362.8 198.95099Q362.64374 199.18536 362.5656 199.49786Q362.4875 199.79474 362.4875 200.12286Q362.4875 200.45099 362.5656 200.74786Q362.64374 201.04474 362.8 201.27911Q362.95624 201.49786 363.175 201.63849Q363.40936 201.76349 363.72186 201.76349Q364.01874 201.76349 364.2531 201.65411Q364.4875 201.52911 364.65936 201.34161Q364.83124 201.15411 364.90936 200.93536Q365.0031 200.70099 365.0031 200.46661L365.5656 200.76349Q365.5656 201.18536 365.3781 201.59161Q365.20624 201.98224 364.89374 202.31036Q364.58124 202.62286 364.175 202.82599Q363.76874 203.01349 363.3 203.01349Q362.6906 203.01349 362.22186 202.79474Q361.76874 202.57599 361.4406 202.18536Q361.1281 201.79474 360.95624 201.27911Q360.8 200.74786 360.8 200.13849Q360.8 199.51349 361.0031 198.98224Q361.20624 198.43536 361.58124 198.01349Q361.97186 197.59161 362.4875 197.35724Q363.01874 197.12286 363.675 197.12286Q364.33124 197.12286 364.8625 197.37286Q365.39374 197.62286 365.76874 198.09161Q366.15936 198.54474 366.3625 199.18536Q366.5656 199.82599 366.5656 200.60724L366.5656 201.18536Q366.5656 202.02911 366.3781 202.74786Q366.20624 203.45099 365.84686 204.02911Q365.5031 204.60724 364.97186 205.01349Q364.45624 205.41974 363.7531 205.63849Q363.0656 205.85724 362.22186 205.85724L362.08124 205.85724L362.08124 204.49786ZM373.72186 204.46661L373.72186 205.77911L367.89374 205.77911L367.89374 204.65411L370.64374 201.70099Q371.0656 201.23224 371.3 200.88849Q371.55 200.52911 371.64374 200.24786Q371.7531 199.95099 371.7531 199.70099Q371.7531 199.31036 371.6281 199.02911Q371.5031 198.74786 371.2531 198.60724Q371.0031 198.45099 370.64374 198.45099Q370.2531 198.45099 369.97186 198.63849Q369.6906 198.82599 369.55 199.16974Q369.40936 199.49786 369.40936 199.91974L367.72186 199.91974Q367.72186 199.15411 368.08124 198.51349Q368.4406 197.87286 369.09686 197.49786Q369.76874 197.12286 370.675 197.12286Q371.5656 197.12286 372.1906 197.41974Q372.8156 197.70099 373.1281 198.24786Q373.4406 198.79474 373.4406 199.54474Q373.4406 199.96661 373.3 200.37286Q373.175 200.76349 372.925 201.16974Q372.675 201.56036 372.3156 201.96661Q371.97186 202.35724 371.55 202.79474L370.0656 204.46661L373.72186 204.46661ZM375.03436 204.96661Q375.03436 204.59161 375.3 204.34161Q375.5656 204.09161 375.9875 204.09161Q376.425 204.09161 376.6906 204.34161Q376.95624 204.59161 376.95624 204.96661Q376.95624 205.34161 376.6906 205.59161Q376.425 205.84161 375.9875 205.84161Q375.5656 205.84161 375.3 205.59161Q375.03436 205.34161 375.03436 204.96661ZM383.8625 202.59161L383.8625 203.91974L377.72186 203.91974L377.6281 202.88849L381.1906 197.24786L382.53436 197.24786L381.08124 199.68536L379.3156 202.59161L383.8625 202.59161ZM382.89374 197.24786L382.89374 205.77911L381.20624 205.77911L381.20624 197.24786L382.89374 197.24786ZM384.8625 199.34161L384.8625 198.88849Q384.8625 198.40411 385.0656 198.01349Q385.28436 197.60724 385.6906 197.37286Q386.1125 197.12286 386.70624 197.12286Q387.3156 197.12286 387.72186 197.37286Q388.14374 197.60724 388.34686 198.01349Q388.5656 198.40411 388.5656 198.88849L388.5656 199.34161Q388.5656 199.81036 388.34686 200.21661Q388.14374 200.60724 387.7375 200.85724Q387.33124 201.09161 386.72186 201.09161Q386.1125 201.09161 385.6906 200.85724Q385.28436 200.60724 385.0656 200.21661Q384.8625 199.81036 384.8625 199.34161ZM385.9875 198.88849L385.9875 199.34161Q385.9875 199.54474 386.0656 199.73224Q386.14374 199.91974 386.3 200.02911Q386.47186 200.13849 386.72186 200.13849Q386.97186 200.13849 387.1281 200.02911Q387.28436 199.91974 387.3625 199.73224Q387.4406 199.54474 387.4406 199.34161L387.4406 198.88849Q387.4406 198.66974 387.3625 198.48224Q387.28436 198.29474 387.1125 198.18536Q386.95624 198.07599 386.70624 198.07599Q386.45624 198.07599 386.3 198.18536Q386.14374 198.29474 386.0656 198.48224Q385.9875 198.66974 385.9875 198.88849ZM388.9406 204.13849L388.9406 203.68536Q388.9406 203.20099 389.14374 202.81036Q389.3625 202.40411 389.76874 202.16974Q390.1906 201.93536 390.8 201.93536Q391.40936 201.93536 391.8156 202.16974Q392.22186 202.40411 392.425 202.81036Q392.64374 203.20099 392.64374 203.68536L392.64374 204.13849Q392.64374 204.62286 392.4406 205.02911Q392.2375 205.41974 391.8156 205.66974Q391.40936 205.90411 390.8156 205.90411Q390.20624 205.90411 389.78436 205.66974Q389.3625 205.41974 389.14374 205.02911Q388.9406 204.62286 388.9406 204.13849ZM390.0656 203.68536L390.0656 204.13849Q390.0656 204.34161 390.15936 204.52911Q390.2531 204.71661 390.40936 204.84161Q390.58124 204.95099 390.8156 204.95099Q391.09686 204.95099 391.2531 204.84161Q391.40936 204.71661 391.47186 204.52911Q391.53436 204.34161 391.53436 204.13849L391.53436 203.68536Q391.53436 203.48224 391.4406 203.29474Q391.3625 203.10724 391.20624 202.99786Q391.05 202.87286 390.8 202.87286Q390.55 202.87286 390.39374 202.99786Q390.2375 203.10724 390.14374 203.29474Q390.0656 203.48224 390.0656 203.68536ZM391.22186 198.46661L387.05 205.13849L386.22186 204.70099L390.39374 198.02911L391.22186 198.46661Z" fill-rule="nonzero"/><path stroke="#606266" stroke-width="1.0" stroke-linecap="butt" d="M393.3 192.27911L323.3 192.27911L228.68977 192.27911" fill-rule="nonzero"/><path fill="#898b91" d="M230.68977 192.27911C230.68977 191.17455 229.79434 190.27911 228.68977 190.27911C227.5852 190.27911 226.68977 191.17455 226.68977 192.27911C226.68977 193.38368 227.5852 194.27911 228.68977 194.27911C229.79434 194.27911 230.68977 193.38368 230.68977 192.27911" fill-rule="nonzero"/></svg>