<svg width="54" height="54" viewBox="0 0 54 54" fill="none" xmlns="http://www.w3.org/2000/svg">
<path d="M21.5556 21.3333C22.9363 21.3333 24.0556 20.214 24.0556 18.8333C24.0556 17.4526 22.9363 16.3333 21.5556 16.3333V18.8333V21.3333ZM10.6667 16.3333C9.28595 16.3333 8.16667 17.4526 8.16667 18.8333C8.16667 20.214 9.28595 21.3333 10.6667 21.3333V18.8333V16.3333ZM10.6667 8.16667C9.28595 8.16667 8.16667 9.28595 8.16667 10.6667C8.16667 12.0474 9.28595 13.1667 10.6667 13.1667V10.6667V8.16667ZM18.8333 13.1667C20.214 13.1667 21.3333 12.0474 21.3333 10.6667C21.3333 9.28595 20.214 8.16667 18.8333 8.16667V10.6667V13.1667ZM41.9466 45.4135C43.0954 46.1793 44.6476 45.8689 45.4135 44.7201C46.1793 43.5713 45.8689 42.0191 44.7201 41.2532L43.3333 43.3333L41.9466 45.4135ZM31.0833 35.1667L32.4701 33.0865C31.5642 32.4826 30.3717 32.5344 29.5216 33.2145L31.0833 35.1667ZM24.2778 40.6111L22.716 42.5633C23.6291 43.2937 24.9265 43.2937 25.8395 42.5633L24.2778 40.6111ZM12.2284 27.77C11.1502 26.9075 9.57702 27.0823 8.71449 28.1605C7.85197 29.2386 8.02677 30.8119 9.10493 31.6744L10.6667 29.7222L12.2284 27.77ZM21.5556 18.8333V16.3333H10.6667V18.8333V21.3333H21.5556V18.8333ZM36.5278 24.2778V21.7778C34.1499 21.7778 32.2222 19.8501 32.2222 17.4722H29.7222H27.2222C27.2222 22.6115 31.3885 26.7778 36.5278 26.7778V24.2778ZM29.7222 17.4722H32.2222C32.2222 15.0943 34.1499 13.1667 36.5278 13.1667V10.6667V8.16667C31.3885 8.16667 27.2222 12.3329 27.2222 17.4722H29.7222ZM36.5278 10.6667V13.1667C38.9056 13.1667 40.8333 15.0943 40.8333 17.4722H43.3333H45.8333C45.8333 12.3329 41.6671 8.16667 36.5278 8.16667V10.6667ZM43.3333 17.4722H40.8333C40.8333 19.8501 38.9056 21.7778 36.5278 21.7778V24.2778V26.7778C41.6671 26.7778 45.8333 22.6115 45.8333 17.4722H43.3333ZM10.6667 10.6667V13.1667H18.8333V10.6667V8.16667H10.6667V10.6667ZM43.3333 43.3333L44.7201 41.2532L32.4701 33.0865L31.0833 35.1667L29.6966 37.2468L41.9466 45.4135L43.3333 43.3333ZM31.0833 35.1667L29.5216 33.2145L22.716 38.6589L24.2778 40.6111L25.8395 42.5633L32.6451 37.1188L31.0833 35.1667ZM24.2778 40.6111L25.8395 38.6589L12.2284 27.77L10.6667 29.7222L9.10493 31.6744L22.716 42.5633L24.2778 40.6111ZM2.5 49.8667H5V4.13333H2.5H0V49.8667H2.5ZM2.5 4.13333H5C5 4.61198 4.61198 5 4.13333 5V2.5V0C1.85056 0 0 1.85056 0 4.13333H2.5ZM4.13333 2.5V5H49.8667V2.5V0H4.13333V2.5ZM49.8667 2.5V5C49.388 5 49 4.61191 49 4.13333H51.5H54C54 1.85063 52.1496 0 49.8667 0V2.5ZM51.5 4.13333H49V49.8667H51.5H54V4.13333H51.5ZM51.5 49.8667H49C49 49.3881 49.3881 49 49.8667 49V51.5V54C52.1495 54 54 52.1495 54 49.8667H51.5ZM49.8667 51.5V49H4.13333V51.5V54H49.8667V51.5ZM4.13333 51.5V49C4.61191 49 5 49.388 5 49.8667H2.5H0C0 52.1496 1.85063 54 4.13333 54V51.5Z" fill="#1B3266"/>
</svg>
